<svg width="327.128906" height="35.920105" viewBox="0 0 327.129 35.9201" fill="none" xmlns="http://www.w3.org/2000/svg" xmlns:xlink="http://www.w3.org/1999/xlink">
	<desc>
			Created with Pixso.
	</desc>
	<defs/>
	<path id="靡不有初，鲜克有终！" d="M1.23047 30.0531Q5.00977 28.1107 6.9873 25.4301Q8.96484 22.7494 9.82617 19.2953Q10.1865 20.1215 10.9072 20.6927Q11.0918 20.9125 11.4697 21.0619Q11.8477 21.2025 12.0234 21.1322Q12.3486 21.0883 13.9746 20.807L15.5918 20.517L15.5918 21.5277L10.626 22.0287Q10.5117 22.0287 10.3447 22.1429Q10.1865 22.2484 10.1865 22.389Q10.2305 22.7845 10.5645 23.347Q10.9072 23.9008 11.417 24.226Q11.5225 24.2611 11.8477 24.349Q12.1729 24.4369 12.3838 24.4369L15.5566 24.0062L17.209 23.8304L16.708 21.4135L15.5918 21.5277Q15.5918 23.2152 15.5566 24.0062L15.5215 24.9115Q13.4648 25.0873 11.54 25.2543Q9.61523 25.4125 8.46387 25.4476Q8.2793 25.4476 8.09473 25.6146Q7.91895 25.7728 7.91895 25.9926Q7.91895 26.4232 8.31445 27.0648Q8.71875 27.7152 9.36035 28.0052Q9.43066 28.0404 9.94922 28.2338Q10.4766 28.4359 10.7666 28.4359Q11.3467 28.4008 15.3369 27.7504L16.0928 27.6449Q17.6045 27.39 17.9648 27.39L17.6045 24.6566L15.5215 24.9115Q15.4424 26.7836 15.3721 27.5746Q15.3721 27.7152 15.3369 27.7504Q15.3018 28.4711 15.4072 29.0424Q15.5215 29.6224 15.7324 29.8773Q16.2422 30.4135 16.5234 30.6244Q16.8135 30.8441 17.209 30.8441Q17.7891 30.8441 18.4307 30.0883Q19.0811 29.3324 19.0811 28.6908Q19.0459 27.7855 19.0459 26.0629Q19.0459 23.2855 19.1865 19.6205Q19.2656 18.5394 19.2656 18.1Q19.3711 17.3441 19.3711 17.098Q19.3711 16.5531 19.0811 16.4125Q17.5342 15.5863 15.627 15.5863Q15.3369 15.5863 15.2051 15.7533Q15.082 15.9115 15.126 16.0521Q15.3369 16.5179 15.46 17.1156Q15.5918 17.7045 15.5918 18.0648L15.5918 18.1L15.5918 20.517L16.3125 20.4467L15.9521 17.9945L15.5918 18.0648Q13.7197 18.3549 10.2305 18.5043Q10.0811 18.5043 10.0107 18.5394Q9.75586 18.6449 9.75586 18.8998Q9.75586 19.0052 9.82617 19.2953Q9.97559 18.7855 10.0107 18.5394Q10.2305 17.6693 10.5117 15.6918L10.626 14.681L10.7666 13.3539Q10.3008 13.89 9.3252 14.8656Q9.21973 14.9008 9.21973 15.0062Q9.21973 15.1205 9.30762 15.1556Q9.39551 15.1908 9.50977 15.1205Q10.0107 14.9711 10.626 14.681Q12.5332 13.8549 14.0449 12.4926Q13.9746 13.1342 13.8955 13.4945Q13.8252 14.1449 13.8955 14.3998Q14.1152 14.7162 14.8359 15.1205Q15.5566 15.516 15.9873 15.5863Q16.4883 15.5863 16.7607 15.1205Q17.0332 14.6459 17.0332 13.7845Q17.0332 13.1342 16.998 12.7035L16.9541 10.726Q18.0352 11.5521 18.6152 12.2377Q18.791 12.4135 19.0459 12.4135Q19.2656 12.4135 19.4062 12.2377Q20.0215 11.5521 20.0215 10.7611Q20.0215 9.86462 19.2656 9.57458Q18.9404 9.46033 18.2725 9.40759Q17.6045 9.35486 16.9541 9.39001Q16.9189 9.24939 16.9189 8.92419Q17.7891 8.85388 19.4062 8.85388Q19.8369 8.85388 19.8369 8.52869L19.7666 8.23865Q19.4414 7.27185 19.0107 6.8324Q18.7559 6.55115 18.5098 6.55115Q18.2549 6.55115 18.0352 6.62146Q17.3936 6.79724 16.9541 6.87634Q15.8818 7.12244 14.0801 7.30701Q14.1504 8.02771 14.1504 8.45837Q13.9307 8.88904 13.6494 9.39001L14.1855 9.28455Q14.1855 11.1918 14.0449 12.4926Q15.2666 11.3324 15.9873 10.0756Q16.1631 10.1459 16.9541 10.726L16.9541 9.39001L16.3477 9.42517Q16.1982 9.46033 16.0576 9.46033Q15.917 9.46033 15.8027 9.50427Q15.5215 9.57458 15.5215 9.71521Q15.5215 9.82068 15.7324 9.93494Q15.9521 10.0404 15.9873 10.0756Q16.1279 9.86462 16.3477 9.42517L16.5586 8.95935L16.6377 8.78357L14.5107 7.66736Q14.2207 8.30896 14.1504 8.45837L14.1855 9.28455Q15.4424 8.99451 16.5586 8.95935Q16.708 8.92419 16.9189 8.92419L16.9541 6.87634L17.0684 5.47009L17.1035 5.28552Q17.1035 5.03943 16.708 4.8197L16.1982 4.64392Q14.8359 4.28357 14.0449 4.24841Q13.7197 4.24841 13.6406 4.35388Q13.5703 4.45935 13.6494 4.71423L13.7549 5.00427L16.1982 4.64392Q19.1865 4.24841 22.6846 3.92322Q22.6846 3.95837 22.7549 4.16931Q22.9307 4.56482 23.0361 5.1449Q23.1504 5.71619 23.1504 6.1908L23.1504 6.33142Q21.5332 6.55115 20.0918 6.55115Q19.7666 6.55115 19.6963 6.67419Q19.626 6.79724 19.7314 7.05212Q20.0566 7.84314 20.8477 8.52869Q21.3486 8.92419 21.8584 8.81873L22.0342 8.74841Q21.2783 10.4359 20.0303 11.9828Q18.791 13.5297 17.5342 14.5756Q17.499 14.6107 17.499 14.681Q17.499 14.9008 17.8945 14.8656Q19.1865 14.5404 20.5752 13.5912Q21.9639 12.6332 23.0098 11.2621Q22.8604 12.4926 22.7549 13.0287L22.7549 13.2045Q22.7549 13.6791 22.9307 13.9603Q23.291 14.5404 23.8096 14.9008Q24.3369 15.2611 24.8027 15.2611Q25.3125 15.2611 25.6553 14.7777Q25.998 14.2855 25.998 13.3539L25.9541 11.7719Q25.9189 11.3324 25.9189 10.4711Q27.6504 13.2484 28.9072 14.2152Q29.4873 14.681 29.8477 14.8129Q30.208 14.9359 30.8584 14.8656Q31.0693 14.8304 31.9482 14.5052Q32.8359 14.1801 33.2666 14.0394L34.2773 13.6439Q34.6377 13.5297 34.6377 13.3539Q34.6377 13.1342 34.2773 12.9935Q32.4404 12.2377 30.2432 10.8314Q28.0459 9.42517 26.5342 7.94861Q28.1865 7.73767 29.7422 7.80798Q29.9531 7.80798 30.1113 7.66736Q30.2783 7.51794 30.2783 7.30701Q30.2783 7.08728 30.1729 6.94666Q29.5928 5.79529 29.0215 5.47009Q28.7666 5.32068 28.582 5.32068Q28.4062 5.32068 28.1162 5.43494Q27.8701 5.50525 27.3779 5.61072Q26.8945 5.71619 26.1387 5.8656L25.418 5.97107Q24.627 6.12048 23.1504 6.33142L23.1504 7.94861L22.4648 7.66736Q22.3242 8.20349 22.0342 8.74841Q23.2207 8.49353 23.1504 8.49353Q23.1504 9.46033 23.0098 11.2621Q23.9766 10.0052 24.4863 8.52869L23.1504 7.94861L23.1504 8.49353Q23.6162 8.34412 23.9766 8.30896L24.5566 8.20349L24.917 8.85388Q25.4531 9.82068 25.9189 10.4711L25.8838 9.28455L25.9189 8.02771Q26.3584 7.94861 26.5342 7.94861L25.9541 7.34216L25.8838 7.27185L24.4072 7.94861L24.5566 8.20349Q25.3828 8.06287 25.9189 8.02771L25.9541 7.34216L25.998 6.76208Q26.0684 6.1908 26.1387 5.8656Q26.3584 5.25037 26.3936 5.1449L26.4287 4.89001Q26.4287 4.56482 26.0332 4.31873Q25.5234 3.99353 24.2314 3.80896Q24.0117 3.7738 23.7041 3.73865Q23.4053 3.70349 23.2207 3.70349L23.0449 3.70349Q22.6846 3.70349 22.6846 3.92322L24.2314 3.80896Q27.3955 3.52771 30.0234 3.59802Q30.3486 3.59802 30.542 3.42224Q30.7441 3.23767 30.7441 2.91248Q30.7441 2.65759 30.6035 2.37634Q30.3135 1.72595 29.7686 0.970093Q29.2324 0.214233 28.582 0.0296631Q28.0459 -0.146118 27.7559 -0.146118Q27.4746 -0.146118 27.0352 -0.0406494Q24.627 0.504272 21.498 0.970093Q21.8936 0.284546 21.8936 -0.365845Q21.8936 -1.15686 21.4014 -1.84241Q20.918 -2.52795 20.0215 -2.92346Q18.9053 -3.52991 16.8135 -3.52991Q16.0225 -3.52991 15.0117 -3.38928Q14.3262 -3.28381 14.3262 -2.84436Q14.3262 -2.73889 14.3613 -2.66858Q14.4053 -2.59827 14.4404 -2.56311Q16.6025 -0.866821 18.2549 1.40076L18.7207 2.0863Q18.7559 2.19177 18.9932 2.28845Q19.2305 2.37634 19.5117 2.37634Q19.8369 2.37634 20.0918 2.22693Q20.9883 1.76111 21.498 0.970093L18.2549 1.40076Q13.5703 1.97205 10.0459 2.19177L9.03516 2.22693Q8.42871 2.22693 8.42871 2.55212Q8.42871 2.73669 8.56934 2.98279Q8.71875 3.16736 9.13184 3.68591Q9.54492 4.20447 9.90527 4.54724Q10.2656 4.89001 10.5469 5.00427Q10.9424 5.21521 11.4521 5.28552Q11.5576 4.60876 11.7422 4.20447Q11.9883 3.56287 11.9883 3.3783Q11.9883 3.08826 11.6631 2.87732Q11.0566 2.51697 10.0459 2.19177Q8.53418 1.65564 7.24219 1.47107Q6.73242 1.43591 6.53027 1.53259Q6.33691 1.62048 6.33691 1.86658Q6.33691 2.05115 6.44238 2.37634Q6.91699 4.16931 6.91699 6.79724Q6.91699 7.37732 6.84668 8.95935Q6.62695 13.2836 6.19629 16.2191Q5.76562 19.1459 4.48242 22.4066Q3.20801 25.6674 0.685547 29.2972Q0.325195 29.8422 0.325195 30.0883Q0.325195 30.2728 0.544922 30.2728Q0.755859 30.2728 1.23047 30.0531ZM10.2656 7.8783Q10.8018 8.88904 11.1621 9.28455L11.2676 7.44763Q10.8721 7.44763 10.6963 7.41248L10.626 7.41248Q10.3711 7.41248 10.2744 7.56189Q10.1865 7.70251 10.2656 7.8783ZM10.7666 13.3539Q11.0215 11.1566 11.1621 9.28455Q11.3818 9.57458 11.6279 9.71521Q11.8125 9.82068 11.9883 9.82068Q12.0586 9.82068 12.3486 9.75037Q12.4541 9.71521 13.6494 9.39001Q12.498 11.4467 10.7666 13.3539ZM11.2676 7.44763Q11.3467 6.5863 11.3467 6.22595L11.4521 5.28552L11.7773 5.28552Q12.208 5.28552 12.7441 5.18005Q12.999 5.10974 13.2627 5.07458Q13.5352 5.03943 13.7549 5.00427Q13.9746 5.83044 14.0801 7.30701Q12.2783 7.48279 11.2676 7.44763ZM20.127 15.3666Q20.6279 16.7025 20.6631 18.5043Q20.6982 19.3304 20.6982 20.807Q20.6982 23.681 20.3467 27.6449Q20.2676 28.8666 20.8828 30.0883Q21.498 31.3187 22.3242 31.3187Q23.0801 31.3187 23.5283 30.7211Q23.9766 30.1322 24.0469 29.1566Q24.126 27.8646 24.126 26.599Q26.209 26.4232 28.582 26.309Q30.9639 26.2035 31.7197 26.2386Q32.1152 26.309 32.3789 25.8959Q32.6514 25.4828 32.4756 25.1576Q32.1855 24.3666 31.5176 23.8304Q30.8584 23.2855 29.7773 23.2855Q28.2305 23.2855 24.126 23.7953L22.9746 23.9359L23.4756 26.6342L24.126 26.599L24.126 23.7953L24.082 22.6439Q26.1387 22.389 29.0566 22.389Q29.2676 22.389 29.4082 22.2133Q29.5576 22.0287 29.5576 21.7738Q29.5576 21.5629 29.4873 21.4486Q29.2324 20.8773 28.9248 20.4467Q28.626 20.016 28.1162 19.8314Q28.0459 19.7963 27.7559 19.7963Q26.71 19.7963 24.126 20.1566L22.6494 20.4467L22.9746 22.7845Q23.291 22.7142 24.082 22.6439Q24.082 20.9125 24.126 20.1566L24.126 19.2953Q26.4639 18.9349 29.3027 18.8998Q30.3486 18.8998 30.3486 18.2845Q30.3486 18.1 30.2432 17.889Q29.8477 16.9926 28.9072 16.1576Q28.626 16.017 28.3008 16.017Q28.0107 16.017 27.5801 16.1576Q25.708 16.7025 24.3721 16.8783L22.4648 17.1332Q22.21 17.1683 22.21 17.4935Q22.21 18.0297 22.8779 18.7504Q23.5459 19.4711 24.0117 19.3304Q24.082 19.3304 24.126 19.2953L24.1963 18.3549Q24.2314 17.4232 24.3721 16.8783Q24.4424 16.5179 24.4424 16.4828L24.4863 16.2719Q24.4863 16.0521 24.3721 15.9467Q24.2666 15.8324 24.0117 15.6918Q22.5 14.9359 20.5928 14.9359Q19.9863 14.9359 20.127 15.3666ZM39.498 22.1693Q39.1729 22.1693 38.9531 22.0111Q38.7422 21.8441 38.7422 21.6332Q38.7422 21.4135 38.918 21.3431Q41.291 19.7611 43.9365 17.098Q46.582 14.4349 48.7266 11.6664Q50.8711 8.88904 51.8027 7.08728Q52.4531 5.79529 52.7432 4.56482Q47.6982 5.18005 45.7207 5.76013Q45.3604 5.83044 45.2197 5.83044Q44.2793 5.83044 43.5059 4.98669Q42.7324 4.13416 41.8359 2.73669Q41.5107 2.19177 41.5107 1.86658Q41.5107 1.47107 41.8359 1.29529Q42.1611 1.11072 42.5918 1.14587Q44.5342 1.26013 49.0518 0.917358Q53.5693 0.574585 58.1045 0.0736084Q62.6396 -0.436157 64.0811 -0.726196Q64.7314 -0.796509 64.9424 -0.796509Q65.417 -0.796509 65.7598 -0.647095Q66.1025 -0.50647 66.498 -0.181274Q67.4297 0.609741 67.9746 2.29724Q68.0801 2.62244 68.0801 2.91248Q68.0801 3.80896 67.1748 3.70349Q66.2432 3.63318 65.4521 3.63318Q62.4639 3.63318 58.1045 4.02869Q58.3945 4.35388 58.3945 4.85486Q58.3945 5.36462 58.0693 5.93591Q57.7441 6.62146 57.0586 7.5531L56.3818 8.599Q56.2324 8.81873 56.127 8.92419Q56.5225 9.02966 56.8125 9.14392Q57.1377 9.24939 57.3135 9.55701Q57.498 9.86462 57.3838 10.2601Q57.2783 10.5414 57.208 11.9828Q57.1729 12.4926 57.1729 14.2855L57.208 22.5648Q57.208 26.3881 57.1025 27.2494Q56.8477 29.7719 55.1162 29.7719Q54.7559 29.7719 54.3252 29.6576Q53.7188 29.4467 53.0508 28.726Q52.3828 28.0052 51.9697 27.0824Q51.5566 26.1683 51.6973 25.4828Q51.9873 23.6107 52.1279 20.4291Q52.2773 17.2386 52.2773 14.1097Q49.4648 17.2035 46.0635 19.4535Q42.6621 21.7035 39.6035 22.1693L39.498 22.1693ZM58.1396 12.2025Q57.7793 11.9476 57.7793 11.6927Q57.7793 11.517 58.0166 11.3763Q58.2539 11.2269 58.5352 11.2621Q60.917 11.4467 63.5801 12.4047Q66.2432 13.3539 67.4297 14.4349Q68.6514 15.5511 68.6514 17.1683Q68.6514 18.2494 68.168 19.2601Q67.6846 20.2621 66.999 20.807Q66.6387 21.1322 66.1729 21.1322Q65.3818 21.1322 64.6611 19.972Q63.4746 18.0648 61.418 15.5511Q59.3701 13.0287 58.1396 12.2025ZM86.8008 31.099Q86.2559 30.9935 85.6582 30.3959Q85.0693 29.807 84.709 28.9193Q84.3486 28.0404 84.3838 27.1439L84.6035 24.226Q84.7441 22.3187 84.8496 20.1742Q84.9639 18.0297 84.9639 15.6215Q82.9863 18.0297 80.499 19.8666Q78.0117 21.7035 74.8828 23.1449Q74.7773 23.1801 74.5576 23.1801Q74.2676 23.1801 74.2676 22.9603Q74.2676 22.7494 74.417 22.6439Q77.6162 19.5414 80.3145 15.9818Q83.0215 12.4135 85.0693 7.84314Q82.7666 8.20349 80.7539 8.70447Q80.5342 8.74841 80.2969 8.81873Q80.0684 8.88904 79.9189 8.88904Q79.6377 8.88904 79.4531 8.74841Q78.917 8.45837 78.2314 7.88708Q77.5459 7.30701 77.0449 6.43689Q76.8252 6.04138 76.8252 5.79529Q76.8252 5.32068 77.7305 5.25037Q80.2793 5.07458 86.5459 4.13416Q86.8711 3.23767 87.4424 1.29529Q88.0576 -0.97229 88.0576 -1.91272Q88.0576 -2.44885 87.8818 -2.87952Q87.7676 -3.16956 87.7676 -3.31897Q87.7676 -3.71448 88.2422 -3.71448L88.6729 -3.63538Q90.6855 -3.28381 92.7422 -1.94788Q93.3838 -1.58752 93.3838 -1.05139Q93.3838 -0.796509 93.2607 -0.488892Q93.1377 -0.181274 93.0586 -0.0406494Q92.9531 0.179077 91.5117 3.41345Q94.7549 2.94763 97.0576 2.58728Q99.3604 2.22693 100.767 2.01599L101.628 1.86658Q101.848 1.83142 102.208 1.83142Q102.964 1.83142 103.359 2.22693Q103.975 2.73669 104.353 3.20251Q104.73 3.66833 105.196 4.56482Q105.372 4.92517 105.372 5.25037Q105.372 5.68103 105.117 6.00623Q104.871 6.33142 104.44 6.33142Q104.01 6.33142 102.999 6.26111Q102.103 6.15564 100.907 6.15564Q99.3604 6.15564 96.3896 6.41052Q93.4189 6.65662 90.0703 7.08728Q89.2441 9.06482 88.3477 10.6205Q89.8594 10.4359 91.6787 10.1283Q93.498 9.82068 94.1748 9.57458Q94.3242 9.50427 94.8428 9.32849Q95.3701 9.14392 95.6514 8.78357Q96.0469 8.49353 96.4424 8.49353Q96.7324 8.49353 97.0576 8.63416Q97.3125 8.78357 98.499 9.46912Q99.6855 10.1459 100.301 10.8314Q100.512 11.0863 100.512 11.4467Q100.512 11.7719 100.336 12.3783Q100.011 13.6 99.9756 14.5756Q99.9404 15.1908 99.9404 16.7728Q99.9404 19.0404 100.028 21.8529Q100.116 24.6566 100.23 26.2386Q100.301 26.9945 99.9053 28.1107Q99.5098 29.2269 98.8945 29.9476Q98.1738 30.7738 97.7607 31.099Q97.3477 31.4242 96.7676 31.5648Q96.2314 31.7142 95.8711 31.4066Q95.5107 31.099 95.1855 30.598Q94.2891 29.2972 91.9863 27.5043Q91.6611 27.2494 91.6611 27.0648Q91.6611 26.8539 92.1621 26.8539L94.5352 26.8539Q95.3701 26.8539 95.3701 25.9135Q95.4053 24.6215 95.4053 22.3539Q95.4053 20.3324 95.3262 17.309L95.291 13.4242Q95.291 13.0638 95.1504 12.9935Q95.0098 12.9232 94.5352 12.9232Q93.8584 12.9232 92.1621 13.1781Q90.4746 13.4242 90.0703 13.5648Q90 13.6 89.7891 13.6Q89.5693 13.6 89.2793 13.4945Q89.1387 14.4701 89.1035 15.9115Q90.0352 15.7621 92.2324 15.3314L92.8477 15.2963Q93.2783 15.2963 93.542 15.4457Q93.8145 15.5863 94.0342 15.9467Q94.2891 16.2367 94.4121 16.4916Q94.5352 16.7377 94.6846 17.2738Q94.7197 17.4232 94.7197 17.599Q94.7197 17.889 94.5 17.9769Q94.2891 18.0648 93.7441 18.1439L89.5342 18.6801L88.998 18.7152Q88.998 19.9369 88.9541 20.5521Q91.0811 20.3763 92.5225 20.0863Q93.1729 20.016 93.3135 20.016Q93.6738 20.016 93.9375 20.1566Q94.21 20.2972 94.4297 20.6927Q94.79 21.1322 95.0098 22.099Q95.0449 22.5648 94.8428 22.6791Q94.6494 22.7845 93.999 22.8197Q92.3467 23.0746 89.7891 23.2855Q89.209 23.2855 88.9541 23.2152Q88.9541 24.8763 89.1035 26.5287L89.1387 27.5043Q89.1387 28.6205 88.7432 29.517Q88.3477 30.4135 87.7852 30.8441Q87.2314 31.2836 86.8008 31.099ZM109.336 20.8422Q109.151 20.8422 109.063 20.6488Q108.976 20.4467 109.116 20.3763Q110.883 19.0756 112.983 16.808Q115.093 14.5404 116.728 12.2201Q118.371 9.89978 118.802 8.49353Q118.837 8.38806 118.767 8.31775Q118.696 8.23865 118.582 8.2738Q117.545 8.66931 114.231 10.2601Q113.73 10.5062 113.405 10.5062Q113.186 10.5062 112.948 10.3832Q112.72 10.2601 112.588 10.1371Q112.465 10.0052 112.395 9.97009Q111.779 9.50427 111.217 8.8363Q110.663 8.16833 110.417 7.5531L110.347 7.27185Q110.347 6.79724 111.103 6.79724Q112.79 6.76208 115.022 6.1908Q117.255 5.61072 119.162 4.52966Q119.698 4.20447 120.208 4.20447Q120.709 4.20447 121.983 5.00427Q123.267 5.79529 123.847 6.62146Q124.093 6.98181 124.093 7.30701Q124.093 7.6322 123.803 7.91345Q123.012 8.70447 122.511 9.60974Q121.289 11.7719 119.848 13.5297Q120.278 13.6791 120.814 14.0043Q120.999 14.1097 121.069 14.2855Q122.37 12.9935 122.994 11.9125Q123.627 10.8314 123.627 10.0404Q123.627 9.78552 123.785 9.66248Q123.952 9.53943 124.128 9.60974Q125.033 9.97009 125.754 10.5853Q126.475 11.1918 126.87 11.9125Q127.011 12.0883 127.011 12.308Q127.011 12.6332 126.703 12.8881Q126.396 13.1342 126 13.3363Q125.604 13.5297 125.464 13.6Q125.174 13.7494 124.541 14.0746Q123.917 14.3998 123.319 14.6195Q122.73 14.8304 122.115 14.9711Q123.557 15.3666 124.242 15.7269Q125.64 16.5179 125.64 17.8187Q125.64 18.9701 124.673 20.0511Q124.453 20.3763 124.022 20.3763Q123.592 20.3763 123.372 20.0511L120.964 16.8431Q120.814 19.7963 120.814 22.8197Q120.814 25.017 120.929 26.599Q120.999 27.8646 120.568 28.5765Q120.138 29.2972 119.382 29.2972Q118.371 29.2972 117.29 28.2601Q116.859 27.8207 116.622 27.1176Q116.394 26.4232 116.464 25.6322Q116.93 21.8881 116.93 18.2142Q116.93 17.1332 116.895 16.6322Q113.511 19.5765 109.371 20.8422L109.336 20.8422ZM115.093 -2.4137Q114.882 -2.59827 114.882 -2.87952Q114.882 -3.06409 115.005 -3.18713Q115.128 -3.31897 115.383 -3.31897Q116.754 -3.31897 118.371 -3.01135Q119.988 -2.70374 120.744 -2.1676Q122.405 -1.08655 122.405 0.24939Q122.405 1.3656 121.219 2.65759Q120.929 3.0531 120.349 3.0531Q119.812 3.0531 119.417 2.62244Q118.081 0.864624 115.093 -2.4137ZM119.417 30.6683Q122.546 28.5062 124.796 24.2435Q127.046 19.972 128.25 16.0697Q129.454 12.1674 129.744 10.4008Q129.929 9.35486 129.929 8.06287L127.837 8.56384Q127.731 8.599 127.512 8.599Q126.686 8.599 125.842 7.73767Q124.998 6.87634 124.523 5.90076Q124.418 5.68103 124.418 5.50525Q124.418 5.18005 124.743 4.96912Q125.068 4.74939 125.64 4.74939Q127.301 4.74939 131.115 3.88806Q134.93 3.01794 137.232 2.4115Q137.382 2.3324 137.883 2.12146Q138.384 1.90173 138.858 1.90173Q139.14 1.90173 139.359 2.01599Q140.256 2.44666 141.223 3.22009Q142.198 3.99353 142.743 4.67908Q142.919 4.96033 142.919 5.21521Q142.919 5.47009 142.796 5.74255Q142.673 6.00623 142.638 6.07654Q142.242 6.87634 142.198 7.41248L142.093 8.99451Q141.557 15.3666 141.117 19.726Q140.687 24.0765 140.115 26.309Q139.685 27.8646 138.586 28.7963Q137.487 29.7367 135.976 30.308Q135.87 30.3431 135.686 30.3431Q135.07 30.3431 134.279 29.2621Q133.418 28.1107 131.906 26.7045L130.825 25.6674Q130.57 25.4125 130.57 25.2367Q130.57 24.9818 131.045 24.9818Q132.697 24.9818 134.033 24.9115Q135.035 24.8763 135.255 24.0765Q136.011 21.0883 136.529 16.3597Q137.057 11.6224 137.057 7.41248Q137.057 6.9115 136.925 6.65662Q136.802 6.40173 136.371 6.40173Q136.151 6.40173 136.011 6.43689L134.314 6.87634Q135.035 7.19275 135.29 7.44763Q135.686 7.84314 135.686 8.13318Q135.686 8.34412 135.466 8.76599Q135.255 9.17908 135.149 9.42517Q134.569 10.5062 134.139 11.9476L133.778 13.099Q132.486 17.2035 131.027 20.517Q129.568 23.8304 126.809 26.889Q124.058 29.9476 120.023 30.9584Q119.742 31.0287 119.593 31.0287Q119.347 31.0287 119.285 30.8969Q119.232 30.7738 119.417 30.6683ZM156.454 23.7162Q156.454 24.8324 156.164 25.9135Q155.883 26.9945 155.347 27.8207Q154.626 28.9017 153.809 29.3324Q153 29.7719 152.244 29.7719Q151.849 29.7719 151.418 29.5873Q150.987 29.4115 150.987 29.1215Q150.987 29.016 151.058 29.016Q152.174 28.8666 152.842 27.9437Q153.51 27.0297 153.396 26.1332Q152.534 25.9486 152.042 25.3422Q151.559 24.7269 151.559 23.681Q151.559 21.8881 152.789 21.308Q153.431 21.0179 153.94 21.0179Q154.371 21.0179 154.802 21.2025Q156.454 21.7738 156.454 23.7162ZM180 23.3646Q179.394 23.3646 178.831 23.0043Q178.277 22.6439 177.987 21.8881Q177.697 21.308 177.697 20.1566L177.697 17.9594Q177.697 13.4945 177.592 12.7386L177.372 11.4818Q175.86 12.809 174.498 13.6439Q174.208 13.7845 174.138 13.7845Q173.953 13.7845 173.883 13.6263Q173.812 13.4594 173.953 13.2836Q176.08 10.6205 177.697 7.50916Q179.314 4.38904 180.176 1.81384Q181.046 -0.761353 181.046 -1.87756Q181.046 -2.34338 181.239 -2.5719Q181.441 -2.8092 181.767 -2.8092Q181.907 -2.8092 182.127 -2.73889Q183.419 -2.27307 184.192 -1.69299Q184.975 -1.1217 185.581 -0.251587Q185.766 0.108765 185.766 0.354858Q185.766 0.864624 185.256 1.57654L184.254 3.1322Q185.476 2.77185 185.977 2.37634Q186.486 1.86658 186.882 1.86658Q187.277 1.86658 187.849 2.55212Q188.279 2.98279 188.534 3.3783Q188.789 3.7738 189.114 4.35388Q189.325 4.71423 189.325 5.00427Q189.325 5.28552 189.105 5.52283Q188.895 5.76013 188.429 6.04138Q188.033 6.22595 187.4 6.7533Q186.768 7.27185 186.082 7.8783Q184.825 8.99451 184.324 9.39001L185.045 9.28455Q185.291 9.21423 185.871 8.92419Q185.977 8.88904 186.354 8.73083Q186.732 8.56384 187.022 8.51111Q187.312 8.45837 187.523 8.49353Q188.209 8.70447 188.912 9.23181Q189.615 9.75037 190.011 10.2953Q190.116 10.4359 190.081 10.6381Q190.046 10.8314 189.896 11.1039Q189.756 11.3763 189.721 11.5873Q189.58 12.0883 189.431 15.8324Q189.396 16.5531 189.36 17.4408Q189.325 18.3197 189.255 19.181Q189.149 20.5873 188.429 21.308Q188.068 21.7035 187.523 21.976Q186.987 22.2484 186.486 22.2484Q186.012 22.2484 185.81 21.9232Q185.616 21.598 185.511 21.0883Q183.313 21.2025 181.301 21.4135Q181.301 22.2836 180.888 22.8285Q180.475 23.3646 180 23.3646ZM174.964 25.9135Q174.894 25.307 175.14 24.8588Q175.395 24.4017 175.896 24.516Q176.687 24.6918 177.126 24.6918Q177.407 24.6918 178.277 24.5511Q186.627 23.0394 189.976 22.1693Q190.011 22.1342 190.116 22.1342Q190.301 22.1342 190.301 22.4242Q190.301 22.7845 190.046 22.89Q188.033 24.0062 181.802 27.5043L177.952 29.6576Q177.697 29.7719 177.442 29.7719Q176.941 29.7719 176.476 29.2269Q176.045 28.7963 175.588 27.8031Q175.14 26.8187 174.964 25.9135ZM179.358 9.53943Q180 9.71521 180.325 9.89978L182.663 9.6449Q183.419 8.63416 184.052 7.48279Q184.685 6.33142 184.825 6.04138Q184.5 6.22595 183.401 6.44568Q182.303 6.65662 181.731 6.69177Q180.791 7.99255 179.358 9.53943ZM182.303 14.2152Q182.232 12.809 182.162 12.1674Q181.441 12.2377 181.151 12.308L181.151 14.3646L182.303 14.2152ZM181.23 19.0756Q181.582 19.0756 182.452 19.0052L182.417 16.2367L181.907 16.307L181.582 16.3422Q181.406 16.3422 181.187 16.2719L181.23 19.0756ZM184.57 18.8207Q184.825 18.8207 185.256 18.7504L185.651 18.6801L185.766 15.9115Q185.476 16.0521 185.045 16.0521Q184.755 16.0521 184.614 16.0873Q184.57 16.9926 184.57 18.8207ZM184.649 13.9252Q185.01 14.0043 185.221 14.2152Q185.476 14.4349 185.801 15.0765Q185.836 13.89 185.836 12.3783Q185.836 12.1674 185.704 12.0092Q185.581 11.8422 185.37 11.8422L184.685 11.8773Q184.72 12.0531 184.685 12.5101Q184.649 12.9584 184.649 13.4242L184.649 13.9252ZM189.545 19.2953Q189.36 18.8646 189.36 18.6801Q189.36 18.2142 190.081 18.2142Q191.347 18.2142 194.511 17.8187L194.511 15.7621L193.649 15.8763Q193.21 15.9467 193.104 15.9467Q192.814 15.9467 192.56 15.8236Q192.313 15.6918 192.059 15.472Q191.742 15.1908 191.435 14.7074Q191.127 14.2152 190.986 13.7142Q190.907 13.5648 190.907 13.4945Q190.907 13.389 191.013 13.3539Q191.127 13.3187 191.25 13.3011Q191.382 13.2836 191.452 13.2484Q193.649 12.8441 194.44 12.6683L194.44 12.4135Q194.326 11.6224 193.86 10.2162Q193.685 10.2601 193.447 10.2953Q193.21 10.3304 192.999 10.4008Q192.138 10.5062 191.232 9.97009Q190.336 9.42517 189.87 8.63416Q189.756 8.42322 189.756 8.2738Q189.756 7.70251 190.731 7.70251Q191.918 7.6322 196.022 6.76208Q197.534 3.80896 198.053 1.43591Q198.58 -0.937134 198.431 -2.30823Q198.396 -2.37854 198.396 -2.56311Q198.396 -2.87952 198.633 -3.00256Q198.87 -3.1344 199.187 -3.06409Q201.208 -2.56311 202.5 -0.831665Q202.755 -0.50647 202.755 -0.181274Q202.755 0.284546 202.359 0.71521Q201.709 1.40076 200.777 2.84216Q200.628 3.0531 199.854 4.13416Q199.081 5.21521 198.07 6.33142Q199.512 6.00623 200.487 5.83044Q201.103 5.71619 201.419 5.71619Q202.069 5.71619 202.315 5.88318Q202.57 6.04138 202.614 6.07654Q203.37 6.72693 203.836 7.77283Q203.906 8.06287 203.906 8.16833Q203.906 8.88904 203.115 8.92419Q201.208 9.02966 197.789 9.53943Q198.07 9.68005 198.22 9.78552Q198.826 10.2162 198.826 10.8666Q198.826 11.1566 198.721 11.5873L198.686 11.807L199.406 11.6576Q199.547 11.6224 199.802 11.6224Q200.232 11.6224 200.61 11.7719Q200.988 11.9125 201.173 12.1322Q201.454 12.4135 201.832 12.976Q202.21 13.5297 202.465 14.0043Q202.535 14.1449 202.535 14.2152Q202.535 14.4701 202.28 14.5931Q202.034 14.7162 201.639 14.7162Q200.127 14.7162 198.396 15.0062L198.325 17.2386Q201.138 16.7377 202.465 16.4125Q202.649 16.3773 202.975 16.3773Q203.906 16.3773 204.557 16.9135Q204.987 17.309 205.348 17.9066Q205.708 18.5043 205.849 19.0404Q205.954 19.5062 205.682 19.849Q205.418 20.1918 205.128 20.0863L204.407 20.0511Q202.825 19.9017 201.454 19.9017Q200.452 19.9017 199.406 20.016Q199.151 20.0511 198.861 20.0863Q198.58 20.1215 198.29 20.1918L198.29 22.389Q198.29 25.9486 198.396 27.4252Q198.431 27.6449 198.431 28.0404Q198.431 29.1215 198.123 30.0355Q197.824 30.9584 197.332 31.4769Q196.849 32.0043 196.418 32.0043Q196.022 32.0043 195.46 31.3011Q194.906 30.598 194.546 29.5345Q194.186 28.4711 194.256 27.4252Q194.44 24.7621 194.511 20.807Q194.291 20.8422 194.106 20.8773Q193.931 20.9125 193.755 20.9476Q192.533 21.2025 191.953 21.2728Q191.162 21.3783 190.6 20.8597Q190.046 20.3324 189.545 19.2953ZM189.87 0.89978Q189.791 0.71521 189.791 0.539429Q189.791 0.108765 190.266 0.0296631Q191.197 -0.0406494 192.243 0.126343Q193.289 0.284546 193.896 0.680054Q195.627 1.6908 195.627 3.16736Q195.627 3.92322 195.179 4.62634Q194.73 5.32068 193.931 5.79529Q193.86 5.8656 193.685 5.8656Q193.43 5.8656 193.21 5.72498Q192.999 5.57556 192.929 5.43494Q192.349 4.71423 191.197 2.87732Q190.187 1.33044 189.87 0.89978ZM226.767 30.5277Q223.813 29.0863 223.813 24.0765Q223.813 23.1097 224.033 21.1674Q224.104 20.6927 224.104 19.7963Q224.104 18.6449 223.919 18.0297L223.093 18.1L223.198 18.2142Q223.488 18.5043 223.488 19.0404Q223.488 19.3656 223.453 19.5062Q223.163 20.517 222.627 22.0638L222.231 23.1801Q220.975 26.4935 218.021 28.5414Q215.068 30.598 211.72 31.0638Q211.069 31.1693 210.639 31.1693Q209.777 31.1693 209.777 30.8441Q209.777 30.7035 209.988 30.5277Q212.977 28.6908 215.042 26.599Q217.116 24.516 218.18 22.8461Q219.243 21.1674 219.384 20.4467Q219.533 19.8314 219.533 19.181Q219.533 18.7855 219.498 18.5746Q219.103 19.181 218.575 19.5238Q218.057 19.8666 217.802 19.7611Q217.011 19.5062 216.633 19.058Q216.255 18.6097 216.22 17.4935Q215.754 11.0511 214.813 9.53943Q214.778 9.46033 214.778 9.3197Q214.778 9.09998 214.954 8.95935Q215.139 8.81873 215.429 8.78357Q216.431 8.74841 217.345 8.95056Q218.268 9.14392 218.918 9.53943Q220.069 9.50427 221.766 9.24939Q221.871 7.41248 221.871 5.93591Q219.138 6.26111 217.011 6.63904Q214.884 7.01697 214.198 7.23669Q213.987 7.30701 213.847 7.30701Q213.196 7.30701 212.423 6.65662Q211.649 6.00623 211.069 5.10974Q210.999 4.89001 210.999 4.8197Q210.999 4.20447 212.01 4.20447Q212.941 4.16931 215.675 3.85291Q218.417 3.52771 221.801 3.01794Q221.801 2.44666 221.73 0.425171Q221.687 -1.19202 221.15 -2.8092Q221.045 -3.1344 221.045 -3.38928Q221.045 -3.71448 221.291 -3.83752Q221.546 -3.96057 222.161 -3.89026Q225.035 -3.60022 226.23 -2.73889Q226.731 -2.34338 226.731 -1.62268Q226.731 -1.15686 226.582 -0.611938Q226.336 0.319702 226.046 2.3324Q229.685 1.72595 232.348 1.14587Q233.209 1.00525 233.464 1.00525Q234.114 1.00525 234.545 1.26013Q234.976 1.50623 235.459 2.39392Q235.942 3.27283 236.092 3.80896Q236.162 4.24841 236.162 4.38904Q236.162 4.67908 236.013 4.8197Q235.872 4.96033 235.477 4.96033Q231.882 4.85486 225.791 5.47009Q225.721 7.48279 225.756 8.599Q228.568 8.06287 229.289 7.66736Q229.395 7.5531 229.685 7.5531Q230.01 7.5531 230.15 7.66736Q230.836 8.06287 231.935 8.85388Q233.033 9.6449 233.358 10.0404Q233.64 10.4008 233.64 10.7611Q233.64 10.972 233.534 11.2621Q233.209 11.7719 231.407 15.5511Q231.803 16.3422 231.952 16.7728Q232.022 16.9926 232.022 17.098Q232.022 17.3441 231.855 17.5287Q231.697 17.7045 231.407 17.7045Q229.825 17.7045 227.487 17.8187L227.918 17.9945Q228.533 18.2494 228.533 18.7855Q228.533 19.1107 228.349 19.6556Q228.173 20.4467 228.138 20.6576Q227.848 22.6791 227.848 23.9008Q227.848 26.6693 229.289 27.1791Q230.476 27.6097 232.603 27.6097Q234.87 27.6097 236.268 27.1439Q236.988 26.9242 237.331 26.0453Q237.674 25.1576 238.034 23.3646Q238.069 23.0043 238.21 22.4594Q238.324 22.0638 238.535 22.0638Q238.755 22.0638 238.79 22.3187Q239.15 23.5404 239.818 24.9291Q240.486 26.309 241.093 27.0648Q241.638 27.7152 241.638 28.4359Q241.638 29.807 239.836 30.5629Q238.755 31.0638 237.006 31.3275Q235.266 31.6 233.279 31.6Q231.337 31.6 229.605 31.3275Q227.883 31.0638 226.767 30.5277ZM219.384 12.3431Q219.568 14.1097 219.779 15.7621Q224.569 15.4017 227.021 15.1205Q227.918 12.9232 228.059 11.6224Q228.059 11.3763 227.848 11.3763Q226.767 11.3763 219.964 12.3431Q219.709 12.3783 219.384 12.3431ZM257.801 31.099Q257.256 30.9935 256.658 30.3959Q256.069 29.807 255.709 28.9193Q255.349 28.0404 255.384 27.1439L255.604 24.226Q255.744 22.3187 255.85 20.1742Q255.964 18.0297 255.964 15.6215Q253.986 18.0297 251.499 19.8666Q249.012 21.7035 245.883 23.1449Q245.777 23.1801 245.558 23.1801Q245.268 23.1801 245.268 22.9603Q245.268 22.7494 245.417 22.6439Q248.616 19.5414 251.314 15.9818Q254.021 12.4135 256.069 7.84314Q253.767 8.20349 251.754 8.70447Q251.534 8.74841 251.297 8.81873Q251.068 8.88904 250.919 8.88904Q250.638 8.88904 250.453 8.74841Q249.917 8.45837 249.231 7.88708Q248.546 7.30701 248.045 6.43689Q247.825 6.04138 247.825 5.79529Q247.825 5.32068 248.73 5.25037Q251.279 5.07458 257.546 4.13416Q257.871 3.23767 258.442 1.29529Q259.058 -0.97229 259.058 -1.91272Q259.058 -2.44885 258.882 -2.87952Q258.768 -3.16956 258.768 -3.31897Q258.768 -3.71448 259.242 -3.71448L259.673 -3.63538Q261.686 -3.28381 263.742 -1.94788Q264.384 -1.58752 264.384 -1.05139Q264.384 -0.796509 264.261 -0.488892Q264.138 -0.181274 264.059 -0.0406494Q263.953 0.179077 262.512 3.41345Q265.755 2.94763 268.058 2.58728Q270.36 2.22693 271.767 2.01599L272.628 1.86658Q272.848 1.83142 273.208 1.83142Q273.964 1.83142 274.359 2.22693Q274.975 2.73669 275.353 3.20251Q275.73 3.66833 276.196 4.56482Q276.372 4.92517 276.372 5.25037Q276.372 5.68103 276.117 6.00623Q275.871 6.33142 275.44 6.33142Q275.01 6.33142 273.999 6.26111Q273.103 6.15564 271.907 6.15564Q270.36 6.15564 267.39 6.41052Q264.419 6.65662 261.07 7.08728Q260.244 9.06482 259.348 10.6205Q260.859 10.4359 262.679 10.1283Q264.498 9.82068 265.175 9.57458Q265.324 9.50427 265.843 9.32849Q266.37 9.14392 266.651 8.78357Q267.047 8.49353 267.442 8.49353Q267.732 8.49353 268.058 8.63416Q268.312 8.78357 269.499 9.46912Q270.686 10.1459 271.301 10.8314Q271.512 11.0863 271.512 11.4467Q271.512 11.7719 271.336 12.3783Q271.011 13.6 270.976 14.5756Q270.94 15.1908 270.94 16.7728Q270.94 19.0404 271.028 21.8529Q271.116 24.6566 271.23 26.2386Q271.301 26.9945 270.905 28.1107Q270.51 29.2269 269.895 29.9476Q269.174 30.7738 268.761 31.099Q268.348 31.4242 267.768 31.5648Q267.231 31.7142 266.871 31.4066Q266.511 31.099 266.186 30.598Q265.289 29.2972 262.986 27.5043Q262.661 27.2494 262.661 27.0648Q262.661 26.8539 263.162 26.8539L265.535 26.8539Q266.37 26.8539 266.37 25.9135Q266.405 24.6215 266.405 22.3539Q266.405 20.3324 266.326 17.309L266.291 13.4242Q266.291 13.0638 266.15 12.9935Q266.01 12.9232 265.535 12.9232Q264.858 12.9232 263.162 13.1781Q261.475 13.4242 261.07 13.5648Q261 13.6 260.789 13.6Q260.569 13.6 260.279 13.4945Q260.139 14.4701 260.104 15.9115Q261.035 15.7621 263.232 15.3314L263.848 15.2963Q264.278 15.2963 264.542 15.4457Q264.814 15.5863 265.034 15.9467Q265.289 16.2367 265.412 16.4916Q265.535 16.7377 265.685 17.2738Q265.72 17.4232 265.72 17.599Q265.72 17.889 265.5 17.9769Q265.289 18.0648 264.744 18.1439L260.534 18.6801L259.998 18.7152Q259.998 19.9369 259.954 20.5521Q262.081 20.3763 263.522 20.0863Q264.173 20.016 264.313 20.016Q264.674 20.016 264.938 20.1566Q265.21 20.2972 265.43 20.6927Q265.79 21.1322 266.01 22.099Q266.045 22.5648 265.843 22.6791Q265.649 22.7845 264.999 22.8197Q263.347 23.0746 260.789 23.2855Q260.209 23.2855 259.954 23.2152Q259.954 24.8763 260.104 26.5287L260.139 27.5043Q260.139 28.6205 259.743 29.517Q259.348 30.4135 258.785 30.8441Q258.231 31.2836 257.801 31.099ZM294.047 17.4584Q295.813 16.1224 297.615 14.4174Q299.417 12.7035 300.858 10.972L299.347 9.24939L298.547 8.34412Q298.266 8.13318 298.116 8.09802Q296.279 9.53943 294.882 10.1107Q294.847 10.1459 294.732 10.1459Q294.486 10.1459 294.486 9.89978Q294.486 9.71521 294.697 9.50427Q296.358 7.37732 297.36 5.21521Q298.371 3.0531 299.382 0.390015Q299.848 -1.05139 299.918 -2.0885Q299.953 -2.70374 300.568 -2.70374Q300.814 -2.70374 301.324 -2.56311Q302.15 -2.23792 303.012 -1.55237Q303.882 -0.866821 304.093 -0.251587Q304.163 -0.0406494 304.163 0.108765Q304.163 0.390015 304.005 0.750366Q303.847 1.11072 303.662 1.40076Q303.486 1.6908 303.372 1.90173Q303.012 2.44666 302.906 2.65759Q304.383 2.29724 304.849 2.01599Q305.279 1.6908 305.604 1.6908Q305.824 1.6908 306.255 1.86658Q306.976 2.15662 308.039 2.80701Q309.103 3.44861 309.498 3.99353Q309.674 4.16931 309.674 4.42419Q309.674 4.67908 309.208 5.21521Q309.138 5.28552 308.953 5.50525Q308.777 5.71619 308.663 5.93591Q306.976 9.14392 305.464 11.0863Q307.547 12.4135 309.243 13.2836Q311.256 14.3646 314.675 15.4369Q315.185 15.6566 315.185 15.9115Q315.185 16.1576 314.789 16.4828Q313.954 17.1332 312.838 17.8011Q311.73 18.4603 310.931 18.7504Q310.57 18.8646 310.175 18.8646Q309.419 18.8646 308.698 18.4867Q307.986 18.1 307.151 17.4584Q305.64 16.3422 303.161 13.6439Q299.593 17.0277 294.803 18.3549Q294.372 18.5043 293.941 18.5043Q293.405 18.5043 293.405 18.2494Q293.405 17.9594 294.047 17.4584ZM282.568 24.8324Q282.454 24.516 282.454 24.1908Q282.454 23.7953 282.63 23.5404Q282.814 23.2855 283.219 23.2855Q284.581 23.2152 285.407 22.89Q288.035 21.8881 293.836 19.2162Q293.906 19.181 294.047 19.181Q294.231 19.181 294.354 19.2953Q294.486 19.4008 294.486 19.5414Q294.486 19.6908 294.337 19.8314Q290.303 24.4369 285.847 28.0756Q285.407 28.4008 285.047 28.4008Q284.616 28.4008 284.326 28.0404Q283.86 27.6097 282.858 25.4476Q282.779 25.307 282.727 25.1664Q282.674 25.017 282.568 24.8324ZM282.533 10.3656Q282.533 10.0756 282.674 9.82068Q284.291 7.99255 285.284 6.12048Q286.277 4.24841 286.998 2.19177Q287.314 1.18103 287.49 0.390015Q287.675 -0.401001 287.675 -1.33264Q287.675 -1.76331 288.149 -1.76331Q288.431 -1.76331 289.081 -1.48206Q289.696 -1.22717 290.593 -0.541626Q291.498 0.143921 291.814 0.539429Q292.104 0.89978 292.104 1.21619Q292.104 1.72595 291.384 2.77185Q290.742 3.63318 289.564 5.50525Q288.396 7.37732 287.604 8.85388Q287.499 9.06482 287.719 9.06482Q288.325 9.02966 289.547 8.88904L289.872 8.30896Q290.487 7.34216 290.848 6.53357Q291.208 5.71619 291.533 4.67908Q291.639 4.38904 291.964 4.38904Q292.359 4.38904 292.931 4.78455Q293.581 5.21521 294.152 5.81287Q294.732 6.40173 294.987 6.87634Q295.128 7.12244 295.128 7.44763Q295.128 8.2738 294.302 9.02966Q293.687 9.6449 292.359 11.2621Q290.628 13.389 289.151 14.8656Q289.011 15.0414 289.266 15.0062Q290.777 14.8304 291.929 14.558Q293.08 14.2855 293.256 14.2504Q293.546 14.2152 293.722 14.3646Q293.906 14.5052 293.906 14.7953Q293.906 15.226 293.476 15.472Q292.79 15.9467 291.814 16.5179L290.417 17.4232L289.336 18.1L286.603 19.9369Q286.022 20.3324 285.662 20.3324Q285.267 20.3324 284.687 19.726Q284.326 19.3656 283.913 18.6625Q283.5 17.9594 283.289 17.309Q283.219 17.1683 283.219 16.9926Q283.219 16.4476 283.975 15.9115Q285.592 14.7953 287.394 12.308Q287.033 12.3783 285.557 12.8881Q284.906 13.0287 284.801 13.0287Q284.511 13.0287 284.221 12.8441Q283.254 12.0531 282.568 10.726L282.533 10.3656ZM298.547 23.7601Q298.336 23.5756 298.336 23.3998Q298.336 23.1801 298.6 23.057Q298.872 22.9252 299.417 22.9603Q300.894 23.0746 303.1 23.8129Q305.314 24.5511 306.114 25.307Q306.65 25.808 306.976 26.5814Q307.301 27.3549 307.301 28.181Q307.301 29.7367 306.255 30.5277Q305.895 30.7386 305.499 30.7386Q305.068 30.7386 304.813 30.4926Q300.498 25.7025 298.547 23.7601ZM299.347 7.01697Q299.918 7.12244 300.533 7.58826L302.37 8.95935Q303.442 7.37732 303.803 6.12048Q303.847 6.04138 303.847 5.93591Q303.847 5.79529 303.557 5.83044Q303.372 5.8656 301.931 6.06775Q300.498 6.26111 299.777 6.5863L299.347 7.01697ZM299.698 17.7045Q299.663 17.6342 299.593 17.4935Q299.522 17.3441 299.522 17.2035Q299.522 16.808 300.103 16.7728Q300.533 16.6322 301.254 16.6322Q302.616 16.6322 303.987 17.1332Q304.849 17.5287 305.314 18.2142Q305.789 18.8998 305.789 19.6908Q305.789 20.3324 305.464 20.9476Q305.139 21.5629 304.488 22.0287Q304.242 22.2045 303.952 22.2045Q303.521 22.2045 303.302 21.9232Q301.86 19.7611 299.698 17.7045ZM326.487 25.8783Q326.127 26.098 325.626 26.1683Q325.441 26.2035 325.081 26.2035Q323.93 26.2035 323.244 25.5619Q322.559 24.9115 322.559 23.681Q322.559 21.8881 323.789 21.308Q324.431 21.0179 324.94 21.0179Q325.371 21.0179 325.802 21.2025Q327.454 21.7738 327.454 23.7162Q327.454 25.1576 326.487 25.8783ZM322.093 2.29724Q322.058 1.62048 322.506 1.3656Q322.954 1.11072 324 1.18103L326.382 1.40076Q326.848 1.43591 327.146 1.83142Q327.454 2.22693 327.384 2.65759Q327.103 4.56482 327.023 6.31384Q326.953 8.06287 326.953 11.4467L326.953 15.6215Q326.953 16.5179 326.47 17.2738Q325.986 18.0297 325.046 17.889Q323.104 17.5638 323.104 16.1224Q323.104 12.308 322.884 9.52185Q322.673 6.72693 322.312 4.06384Q322.128 3.01794 322.093 2.29724Z" fill-rule="evenodd" fill="#333333"/>
</svg>
