<svg width="212" height="33" viewBox="0 0 212 33" fill="none" xmlns="http://www.w3.org/2000/svg">
<path d="M20.5559 0.360077C21.2999 0.360077 21.9359 0.444077 22.4639 0.612078C23.0159 0.756077 23.4719 1.04408 23.8319 1.47608L23.8679 1.76408C23.6519 2.19608 23.3879 2.65208 23.0759 3.13208C22.7639 3.58808 22.5599 3.98408 22.4639 4.32008C22.3679 4.63208 22.3199 5.20808 22.3199 6.04808C22.3199 6.93608 22.3439 7.56008 22.3919 7.92008C22.4639 8.25608 22.5479 8.53208 22.6439 8.74808C22.7879 9.03608 22.8599 9.40808 22.8599 9.86408C22.5719 10.2481 22.4279 10.6441 22.4279 11.0521L22.4639 11.1961C22.4639 11.4841 22.3679 11.7481 22.1759 11.9881L22.3559 12.1321C22.5959 12.2761 22.7399 12.3961 22.7879 12.4921C22.7639 12.6121 22.6559 12.8041 22.4639 13.0681C22.2719 13.3321 22.1759 13.5721 22.1759 13.7881C22.1759 13.8841 22.1879 14.0161 22.2119 14.1841C22.2599 14.3521 22.2839 14.4841 22.2839 14.5801C22.2839 15.3481 22.2119 15.8401 22.0679 16.0561C21.9959 16.1761 21.9599 16.2841 21.9599 16.3801C21.9599 16.6201 22.0439 16.8841 22.2119 17.1721C22.3079 17.3401 22.3559 17.4721 22.3559 17.5681C22.3559 17.7121 22.3319 17.8801 22.2839 18.0721C22.3079 18.2401 22.3559 18.4681 22.4279 18.7561C22.5239 19.2601 22.5719 19.6561 22.5719 19.9441C22.5719 20.1121 22.5239 20.2681 22.4279 20.4121C22.3319 20.5561 22.2839 20.6761 22.2839 20.7721C22.2839 20.9401 22.3199 21.0961 22.3919 21.2401C22.4879 21.3601 22.5359 21.4801 22.5359 21.6001C22.4399 21.7921 22.3919 21.9601 22.3919 22.1041C22.3919 22.1761 22.4159 22.2961 22.4639 22.4641L22.4999 22.5361C22.5719 22.6081 22.6079 22.7281 22.6079 22.8961C22.6079 23.0161 22.5599 23.1481 22.4639 23.2921C22.3919 23.4361 22.3439 23.5681 22.3199 23.6881L22.3559 23.9761C22.3799 24.0241 22.3919 24.1321 22.3919 24.3001L22.3199 24.8761C22.2959 25.0441 22.2839 25.1761 22.2839 25.2721C22.2839 25.4881 22.3199 25.7641 22.3919 26.1001L22.4639 26.3521C22.3199 26.6881 22.1519 26.9161 21.9599 27.0361C22.0559 27.1321 22.1279 27.3721 22.1759 27.7561C22.2239 28.1161 22.2479 28.4041 22.2479 28.6201C22.2479 29.3881 22.0199 29.9881 21.5639 30.4201C21.1319 30.8761 20.6159 31.1041 20.0159 31.1041C19.6799 31.1041 19.3919 31.0081 19.1519 30.8161C18.9359 30.6241 18.6479 30.3241 18.2879 29.9161C17.5919 29.0761 17.0039 28.5121 16.5239 28.2241C16.0439 27.9361 15.8039 27.7081 15.8039 27.5401L15.8759 27.3961C15.9239 27.3961 15.9839 27.3841 16.0559 27.3601L16.1279 27.3241C16.2479 27.3241 16.3919 27.3601 16.5599 27.4321C16.7519 27.4801 16.9079 27.5041 17.0279 27.5041C17.1719 27.5041 17.4239 27.4561 17.7839 27.3601C18.2879 27.2401 18.6719 27.1801 18.9359 27.1801C19.0079 27.1801 19.1759 26.9521 19.4399 26.4961C19.7039 26.0401 19.8839 25.7761 19.9799 25.7041C19.9319 25.3921 19.9079 25.0921 19.9079 24.8041C19.9079 23.7241 19.9319 23.1241 19.9799 23.0041L19.9439 22.7881C19.8239 22.3801 19.7639 22.0681 19.7639 21.8521C19.7639 21.7801 19.7879 21.6721 19.8359 21.5281C19.9559 21.1681 20.0159 20.7961 20.0159 20.4121L19.9799 19.6201C19.9559 19.1641 19.9439 18.8281 19.9439 18.6121C19.9439 18.4441 19.9679 18.1921 20.0159 17.8561C20.0639 17.4961 20.0879 17.2441 20.0879 17.1001C20.0879 16.9321 20.0639 16.7881 20.0159 16.6681C20.2319 16.0201 20.3399 15.5641 20.3399 15.3001C20.3399 14.9161 20.2799 14.4241 20.1599 13.8241C20.0639 13.2241 20.0159 12.7321 20.0159 12.3481C20.0159 12.2041 20.0639 12.0361 20.1599 11.8441V11.7001C20.1599 11.6041 20.1359 11.4601 20.0879 11.2681C20.0159 10.9561 19.9799 10.6321 19.9799 10.2961C19.9799 9.96008 19.8839 9.56408 19.6919 9.10808C19.4999 8.65208 19.4039 8.23208 19.4039 7.84808C19.4039 7.56008 19.4879 7.21208 19.6559 6.80408C19.8239 6.39608 19.9079 6.00008 19.9079 5.61608C19.9079 5.06408 19.7279 4.32008 19.3679 3.38408C19.0799 2.61608 18.9359 2.06408 18.9359 1.72808C18.9359 1.32008 19.1039 0.996077 19.4399 0.756076C19.7999 0.492076 20.1719 0.360077 20.5559 0.360077ZM12.8519 1.51208C13.2119 1.70408 13.4639 1.92008 13.6079 2.16008C13.7759 2.37608 13.8599 2.76008 13.8599 3.31208C13.8599 3.57608 13.7279 3.79208 13.4639 3.96008C13.2239 4.12808 12.8639 4.29608 12.3839 4.46408L12.2399 4.53608C12.0959 4.58408 11.4959 5.04008 10.4399 5.90408C9.38392 6.76808 8.83192 7.24808 8.78392 7.34408C8.51992 7.77608 8.33992 8.29208 8.24392 8.89208C8.14792 9.49208 8.07592 10.2241 8.02792 11.0881L7.99192 11.7001L8.06392 11.9881C8.06392 12.1561 8.02792 12.4201 7.95592 12.7801L8.09992 13.1401C8.45992 13.0921 8.83192 12.9721 9.21592 12.7801C9.59992 12.5881 10.0919 12.3121 10.6919 11.9521C11.2679 11.5921 11.7359 11.3281 12.0959 11.1601C12.4559 10.9681 12.8039 10.8601 13.1399 10.8361L13.3919 11.0161L13.3559 11.3761C13.1399 11.6641 12.7439 12.0481 12.1679 12.5281C11.6159 13.0081 10.8599 13.4881 9.89992 13.9681C9.03592 14.4001 8.49592 14.7481 8.27992 15.0121C8.08792 15.2521 7.99192 15.6241 7.99192 16.1281C8.01592 17.0161 8.03992 17.5921 8.06392 17.8561V18.1441C8.06392 18.2881 8.05192 18.4681 8.02792 18.6841C8.00392 18.9001 7.99192 19.0801 7.99192 19.2241C7.99192 19.5121 8.03992 19.8841 8.13592 20.3401L8.24392 20.9521C8.19592 21.1441 8.17192 21.2881 8.17192 21.3841C8.17192 23.5681 8.24392 25.2361 8.38792 26.3881L8.24392 26.5681L8.17192 26.7841C8.17192 26.9521 8.24392 27.2161 8.38792 27.5761C8.38792 28.1041 8.05192 28.6921 7.37992 29.3401C6.70792 29.9881 6.11992 30.3121 5.61592 30.3121C5.44792 30.3121 5.29192 30.2521 5.14792 30.1321C5.00392 30.0121 4.82392 29.8201 4.60792 29.5561C4.24792 29.1961 3.91192 28.8961 3.59992 28.6561C3.31192 28.4161 2.93992 28.2361 2.48392 28.1161L2.30392 28.0801C1.29592 27.8641 0.791916 27.5281 0.791916 27.0721L0.899916 26.8561C1.30792 26.6401 2.38792 26.4721 4.13992 26.3521L4.93192 26.2801L5.21992 26.1001C5.21992 25.9081 5.33992 25.6441 5.57992 25.3081C5.93992 24.7801 6.13192 24.3001 6.15592 23.8681L6.08392 23.5801C6.08392 23.4601 6.11992 23.3041 6.19192 23.1121C6.26392 22.9201 6.29992 22.7521 6.29992 22.6081C6.17992 22.3441 6.11992 21.8401 6.11992 21.0961L6.04792 20.6281L6.08392 20.5921V20.4841L6.11992 20.3761C6.19192 20.1841 6.22792 20.0521 6.22792 19.9801C6.22792 19.8361 6.20392 19.6561 6.15592 19.4401C6.10792 19.2001 6.08392 19.0081 6.08392 18.8641C6.08392 18.6481 6.14392 18.3961 6.26392 18.1081C6.23992 17.9401 6.17992 17.7361 6.08392 17.4961C6.01192 17.2321 5.97592 17.0401 5.97592 16.9201L6.01192 16.6321L5.93992 16.4521C5.24392 16.9561 4.65592 17.2081 4.17592 17.2081C4.12792 17.4721 3.63592 18.0241 2.69992 18.8641C2.26792 19.2721 1.71592 19.4761 1.04392 19.4761C0.659916 19.4761 0.383916 19.2721 0.215916 18.8641C0.0719162 18.4321 -8.38041e-05 17.9881 -8.38041e-05 17.5321C-8.38041e-05 17.1241 0.407916 16.7041 1.22392 16.2721C2.06392 15.8401 2.99992 15.4801 4.03192 15.1921C5.06392 14.8801 5.77192 14.7241 6.15592 14.7241C6.15592 14.5561 6.11992 14.3281 6.04792 14.0401C5.90392 13.6081 5.81992 13.1881 5.79592 12.7801L5.83192 12.0961C5.83192 10.2961 5.67592 8.92808 5.36392 7.99208C5.41192 7.87208 5.43592 7.75208 5.43592 7.63208C5.43592 7.32008 5.39992 7.04408 5.32792 6.80408L5.61592 6.44408C5.90392 6.34808 6.19192 6.30008 6.47992 6.30008C6.62392 6.30008 6.80392 6.33608 7.01992 6.40808C7.25992 6.48008 7.45192 6.51608 7.59592 6.51608C8.05192 6.51608 8.33992 6.42008 8.45992 6.22808C8.60392 6.01208 8.67592 5.64008 8.67592 5.11208C8.67592 4.82408 8.51992 4.64408 8.20792 4.57208C7.89592 4.47608 7.45192 4.41608 6.87592 4.39208L5.90392 4.42808C5.51992 4.42808 5.03992 4.39208 4.46392 4.32008C3.91192 4.24808 3.44392 4.21208 3.05992 4.21208C2.84392 4.21208 2.66392 4.24808 2.51992 4.32008C2.39992 4.36808 2.23192 4.47608 2.01592 4.64408C1.89592 4.74008 1.73992 4.78808 1.54792 4.78808C0.827916 4.78808 0.467916 4.46408 0.467916 3.81608C0.467916 3.31208 0.647916 2.97608 1.00792 2.80808C1.36792 2.64008 1.84792 2.55608 2.44792 2.55608C2.68792 2.55608 2.97592 2.60408 3.31192 2.70008C3.67192 2.79608 3.97192 2.84408 4.21192 2.84408C4.73992 2.84408 5.30392 2.72408 5.90392 2.48408C6.38392 2.31608 6.79192 2.23208 7.12792 2.23208C8.18392 2.32808 8.91592 2.37608 9.32392 2.37608L9.71992 1.98008C10.1039 1.54808 10.4399 1.21208 10.7279 0.972077C11.0399 0.708076 11.3399 0.576076 11.6279 0.576076L11.7719 0.648077C12.0119 0.960078 12.3719 1.24808 12.8519 1.51208ZM14.4719 7.99208C14.9519 7.99208 15.6479 8.20808 16.5599 8.64008C16.6799 8.71208 16.7639 8.77208 16.8119 8.82008C16.8599 8.84408 16.9199 8.90408 16.9919 9.00008C17.1119 9.16808 17.1719 9.31208 17.1719 9.43208L16.3799 12.0601C15.8759 13.8361 15.4919 14.9521 15.2279 15.4081C15.0359 15.7681 14.9039 16.1521 14.8319 16.5601L14.8679 16.7401C14.7479 17.4601 14.2079 18.8881 13.2479 21.0241C12.2879 23.1601 11.1599 24.7681 9.86392 25.8481C9.64792 26.0161 9.49192 26.1001 9.39592 26.1001L9.25192 26.0641C9.20392 26.0161 9.17992 25.9681 9.17992 25.9201C9.17992 25.8721 9.25192 25.7161 9.39592 25.4521C10.0919 24.1801 10.6319 22.9201 11.0159 21.6721C11.1359 21.3121 11.2559 21.0601 11.3759 20.9161C11.5199 20.7481 11.6159 20.5201 11.6639 20.2321C11.7359 19.8241 11.8559 19.3801 12.0239 18.9001C12.1919 18.4201 12.3119 18.0961 12.3839 17.9281C12.6239 17.3761 12.8399 16.8241 13.0319 16.2721C12.9839 16.0801 12.9599 15.9121 12.9599 15.7681C12.9599 15.4321 13.1879 14.9761 13.6439 14.4001L13.7519 14.2561L13.4999 13.8601C13.5239 13.5961 13.5839 13.2721 13.6799 12.8881C13.7999 12.5041 13.8719 12.2041 13.8959 11.9881L13.8239 11.6281C13.9679 11.2441 14.0639 10.9201 14.1119 10.6561C14.1599 10.3681 14.1839 10.0081 14.1839 9.57608C14.1839 9.43208 14.1719 9.21608 14.1479 8.92808C14.1239 8.64008 14.1119 8.43608 14.1119 8.31608C14.1119 8.22008 14.1599 8.12408 14.2559 8.02808L14.4719 7.99208ZM30.9239 19.6921C30.9959 19.8601 31.0319 20.0281 31.0319 20.1961C31.0319 21.4921 30.9239 22.5241 30.7079 23.2921C30.4919 24.0361 29.9879 24.4081 29.1959 24.4081C29.0519 24.4081 28.8359 23.8441 28.5479 22.7161C28.4759 22.3801 28.4279 22.2001 28.4039 22.1761C27.8759 20.0641 27.4799 18.6241 27.2159 17.8561C26.9519 17.0881 26.6399 16.3321 26.2799 15.5881C25.8719 14.7001 25.5119 13.8361 25.1999 12.9961C24.8879 12.1321 24.5879 11.3881 24.2999 10.7641C24.2279 10.6921 24.0959 10.6081 23.9039 10.5121C23.5919 10.3441 23.4359 10.1881 23.4359 10.0441C23.4359 9.97208 23.4959 9.84008 23.6159 9.64808C24.4319 9.86408 25.1039 10.2721 25.6319 10.8721C26.1839 11.4721 26.7959 12.3241 27.4679 13.4281C27.8759 14.1001 28.1879 14.5921 28.4039 14.9041L28.8359 15.7321C30.1319 18.2761 30.8279 19.5961 30.9239 19.6921ZM53.2799 2.34008C53.2799 1.47608 53.3519 0.936076 53.4959 0.720076C53.6639 0.480077 53.8679 0.360077 54.1079 0.360077C54.7799 0.360077 55.6919 0.480077 56.8439 0.720076L58.3919 1.00808L58.4999 1.15208C58.7399 1.22408 58.9919 1.26008 59.2559 1.26008L59.4719 1.22408C59.7839 1.22408 60.0839 1.30808 60.3719 1.47608C60.6839 1.62008 61.0799 1.84808 61.5599 2.16008L61.9919 2.44808L62.0999 2.70008C62.0999 3.42008 62.0519 3.97208 61.9559 4.35608L61.8479 4.46408C61.6559 4.68008 61.4879 4.81208 61.3439 4.86008L61.2359 5.07608C61.4039 5.19608 61.5839 5.25608 61.7759 5.25608C61.8959 5.25608 62.0639 5.20808 62.2799 5.11208L62.4599 5.04008C62.4839 4.75208 62.6159 4.42808 62.8559 4.06808L62.9999 3.85208C63.1439 3.78008 63.3239 3.66008 63.5399 3.49208C63.7559 3.32408 64.0079 3.24008 64.2959 3.24008C64.7039 3.24008 65.2319 3.63608 65.8799 4.42808C66.3119 4.95608 66.7319 5.30408 67.1399 5.47208C67.2119 5.61608 67.2599 5.77208 67.2839 5.94008L67.1399 6.30008C66.7559 6.68408 66.2639 6.91208 65.6639 6.98408C65.3039 6.81608 64.7159 6.68408 63.8999 6.58808C63.1079 6.46808 62.4479 6.40808 61.9199 6.40808C58.9919 6.40808 57.1919 6.43208 56.5199 6.48008L56.1959 6.73208C56.1959 7.66808 56.2199 8.37608 56.2679 8.85608C56.5799 9.09608 57.9839 9.21608 60.4799 9.21608C60.5279 9.14408 60.8039 8.85608 61.3079 8.35208L61.4159 8.24408L61.8839 8.20808C62.3639 8.20808 62.7959 8.29208 63.1799 8.46008C63.5639 8.62808 64.0199 8.90408 64.5479 9.28808L64.7639 9.61208V9.86408L64.6919 10.0081L64.5479 10.1161C64.5239 10.2841 64.4039 10.4521 64.1879 10.6201C63.9719 10.7641 63.8399 10.9081 63.7919 11.0521C63.7439 11.1721 63.6479 11.3761 63.5039 11.6641C63.3599 11.9521 63.2639 12.1681 63.2159 12.3121L63.2879 12.5641C63.4799 12.6841 63.5999 12.8161 63.6479 12.9601C63.7199 13.0801 63.7679 13.2481 63.7919 13.4641C63.8399 13.8721 63.9359 14.2081 64.0799 14.4721L64.0439 16.8481C63.9479 17.0881 63.8519 17.3641 63.7559 17.6761C63.7319 18.0361 63.4919 18.4561 63.0359 18.9361L62.9639 19.1521L63.0719 19.4041L63.2159 19.5481L63.1799 19.7281C62.6999 19.9441 62.1359 20.0521 61.4879 20.0521C61.3919 20.0521 61.2239 20.0281 60.9839 19.9801L60.6599 19.9081L60.4799 20.1601C60.4799 20.7841 60.5519 21.2041 60.6959 21.4201C60.9599 21.6121 61.6799 21.7081 62.8559 21.7081C62.9999 21.5641 63.1559 21.3361 63.3239 21.0241C63.5159 20.6161 63.8039 20.3521 64.1879 20.2321C64.5959 20.0881 64.8239 19.9201 64.8719 19.7281C64.8719 19.6561 64.9079 19.6081 64.9799 19.5841C65.0519 19.5361 65.2199 19.5121 65.4839 19.5121C66.0359 19.5121 66.4679 19.6681 66.7799 19.9801C67.2359 20.0281 67.4759 20.2201 67.4999 20.5561H67.6799L67.7879 20.8081C67.7879 20.9761 67.8479 21.1201 67.9679 21.2401L68.0039 21.9601L67.9679 22.5721L67.8239 22.6801C67.7759 22.8481 67.6679 22.9921 67.4999 23.1121L67.0319 23.1481C66.5279 23.1481 65.8319 23.0161 64.9439 22.7521C64.0559 22.4641 63.3599 22.3201 62.8559 22.3201C62.5199 22.3201 61.7399 22.5241 60.5159 22.9321C60.4199 23.2921 60.3599 23.9521 60.3359 24.9121C60.3359 25.0801 60.3599 25.3081 60.4079 25.5961C60.4559 25.8601 60.4799 26.7601 60.4799 28.2961C60.4799 28.8001 60.4439 29.1961 60.3719 29.4841C60.3239 29.7961 60.1919 30.0361 59.9759 30.2041C59.7119 30.2761 59.5079 30.4441 59.3639 30.7081C59.1719 30.8041 58.7039 30.9481 57.9599 31.1401C57.2159 31.3561 56.7119 31.4641 56.4479 31.4641C56.3039 31.4641 56.1119 31.4401 55.8719 31.3921L55.7639 31.2481C55.4039 31.2001 55.1399 31.1281 54.9719 31.0321C54.8279 30.9361 54.6359 30.6721 54.3959 30.2401C54.2999 30.0241 54.2159 29.8681 54.1439 29.7721V29.7001C53.8319 29.4841 53.6279 29.1961 53.5319 28.8361C53.5559 28.6681 53.6279 28.5241 53.7479 28.4041C55.6919 28.4041 56.8439 28.2721 57.2039 28.0081C57.2519 27.8161 57.2879 27.5401 57.3119 27.1801L57.3479 26.7481H57.5279C57.8399 25.4761 57.9959 24.5641 57.9959 24.0121L57.9599 23.4361L57.8159 23.1841L57.3479 22.8241L57.2399 22.6081C56.6159 22.5361 55.9919 22.5001 55.3679 22.5001H54.4679C53.8439 22.5001 53.2199 22.4641 52.5959 22.3921L52.3079 22.1761L52.2359 21.9961C52.2359 21.5401 52.8479 21.3121 54.0719 21.3121C54.8159 21.3121 55.2959 21.3601 55.5119 21.4561C55.6079 21.5041 55.7279 21.5281 55.8719 21.5281C56.0159 21.5281 56.2199 21.4201 56.4839 21.2041L56.8799 21.0961C57.2639 21.0001 57.5519 20.8561 57.7439 20.6641C57.7679 20.5441 57.7799 20.4361 57.7799 20.3401L57.7439 19.8001C57.7439 19.4881 57.8039 18.9961 57.9239 18.3241L58.1039 18.2881C58.3919 18.2401 58.6079 18.2161 58.7519 18.2161C58.8479 18.2161 58.9919 18.2281 59.1839 18.2521C59.3999 18.2761 59.5559 18.3001 59.6519 18.3241C59.7479 18.3241 59.8679 18.3601 60.0119 18.4321C60.2519 18.5521 60.4559 18.6361 60.6239 18.6841C60.7439 18.5161 60.8039 18.3601 60.8039 18.2161C60.8039 18.0481 60.7799 17.8441 60.7319 17.6041L60.5519 17.4241L59.7959 17.3881C59.2439 17.3881 58.8239 17.3521 58.5359 17.2801L58.3199 17.1361H57.5279C56.9039 17.1601 56.4359 17.3281 56.1239 17.6401C56.1239 18.7921 56.0519 19.6321 55.9079 20.1601C55.7399 20.4481 55.4399 20.5921 55.0079 20.5921C54.5519 20.5921 54.1079 20.5681 53.6759 20.5201L53.4599 20.2681C53.4119 20.0281 53.3879 19.8001 53.3879 19.5841C53.3879 18.6001 53.4479 17.6881 53.5679 16.8481C53.7119 16.6321 53.7839 16.4041 53.7839 16.1641C53.7839 16.1161 53.7479 16.0201 53.6759 15.8761C53.5559 15.5881 53.4959 15.3361 53.4959 15.1201V14.6161L53.5319 14.2201C53.5319 14.0761 53.5079 13.8841 53.4599 13.6441L51.8759 13.5721C50.2199 13.5241 49.3079 13.3321 49.1399 12.9961L49.1039 12.8881C49.0079 12.8401 48.9359 12.7681 48.8879 12.6721L48.5639 12.6001C48.4919 12.6001 48.4079 12.6961 48.3119 12.8881C48.3119 12.9841 48.3479 13.1041 48.4199 13.2481C48.7799 13.5121 49.1759 13.7521 49.6079 13.9681C49.7279 15.0241 49.8839 15.8161 50.0759 16.3441L51.1199 16.4161C51.7919 16.4641 52.3199 16.5481 52.7039 16.6681L52.7759 16.8841C52.7039 17.0281 52.5719 17.1481 52.3799 17.2441C52.0919 17.2441 51.8159 17.1601 51.5519 16.9921H49.5359C49.4399 17.1361 49.3919 17.2681 49.3919 17.3881C49.3919 17.5081 49.4159 17.6641 49.4639 17.8561L49.4999 18.0361H49.6799V19.7281H49.4999V19.7641C49.4999 19.9081 49.4279 20.1001 49.2839 20.3401C49.1399 20.5561 48.9959 20.6881 48.8519 20.7361L48.7799 20.9881L48.9239 21.2401C49.1159 21.2881 49.2719 21.3121 49.3919 21.3121L49.6079 21.2761C49.9439 21.2281 50.1959 21.2041 50.3639 21.2041C50.4839 21.2041 50.6279 21.2641 50.7959 21.3841C50.9639 21.4801 51.0959 21.5761 51.1919 21.6721L51.2639 21.9601C51.3599 22.3201 51.4199 22.5961 51.4439 22.7881L51.5519 22.8601C51.6479 22.9321 51.7079 23.0041 51.7319 23.0761C52.3799 23.4601 52.9559 23.9401 53.4599 24.5161C53.9879 25.0681 54.2519 25.6321 54.2519 26.2081C54.2519 26.2801 54.2279 26.4241 54.1799 26.6401L54.1439 26.7481C54.0959 26.8921 53.9039 27.0961 53.5679 27.3601C53.2319 27.6001 52.9439 27.7801 52.7039 27.9001C52.2479 27.9001 51.8879 27.8641 51.6239 27.7921L51.3719 27.5761C51.0839 27.3601 50.8799 27.1801 50.7599 27.0361L50.6519 25.8481C50.5799 24.9841 50.5079 24.3241 50.4359 23.8681C50.3639 23.3881 50.2439 23.0761 50.0759 22.9321L49.3919 22.5361C48.0719 22.4641 46.7279 22.4281 45.3599 22.4281C45.0719 22.4281 44.7239 22.3681 44.3159 22.2481C43.9079 22.1281 43.5719 22.0561 43.3079 22.0321C43.1639 22.4881 43.0799 23.1721 43.0559 24.0841C43.0559 24.7561 43.0799 25.6441 43.1279 26.7481C43.1999 27.8281 43.2359 28.7041 43.2359 29.3761C43.2359 29.6401 43.1999 30.0961 43.1279 30.7441C43.0319 30.9121 42.7799 31.1281 42.3719 31.3921C41.9879 31.6561 41.5199 31.7881 40.9679 31.7881C40.7039 31.7881 40.4519 31.7641 40.2119 31.7161C40.0199 31.5961 39.8759 31.4401 39.7799 31.2481C39.7559 30.8401 39.7439 30.4561 39.7439 30.0961C39.7439 28.7761 39.7919 27.9601 39.8879 27.6481C40.1039 27.0721 40.2119 25.7281 40.2119 23.6161C40.2119 23.0401 40.1999 22.2361 40.1759 21.2041V20.1241C40.1759 19.9321 40.1999 19.7161 40.2479 19.4761C40.3919 18.4921 40.4639 16.3681 40.4639 13.1041C40.4639 11.5921 40.3439 10.6561 40.1039 10.2961C39.8159 10.2481 39.5159 10.2241 39.2039 10.2241C38.7959 10.2241 38.3039 10.2721 37.7279 10.3681C37.1759 10.4641 36.6959 10.5121 36.2879 10.5121C35.7119 10.5121 35.2559 10.4281 34.9199 10.2601L34.6319 10.0081L34.5959 9.57608C34.5959 9.40808 34.6679 9.15608 34.8119 8.82008L34.8479 8.71208L35.0279 8.56808L35.8559 8.53208C36.3839 8.53208 36.9719 8.62808 37.6199 8.82008C38.2679 8.98808 38.8559 9.07208 39.3839 9.07208C39.6239 9.07208 39.9959 8.97608 40.4999 8.78408L40.5359 8.67608C40.7039 8.38808 40.7879 8.17208 40.7879 8.02808C40.7879 7.98008 40.7039 7.74008 40.5359 7.30808C40.4639 7.06808 40.4279 6.50408 40.4279 5.61608C40.4279 5.37608 40.4999 5.07608 40.6439 4.71608C40.7399 4.50008 40.7879 4.34408 40.7879 4.24808C40.7879 4.05608 40.6799 3.85208 40.4639 3.63608C40.4399 3.54008 40.3919 3.40808 40.3199 3.24008C40.1999 2.85608 40.1399 2.54408 40.1399 2.30408C40.1399 1.99208 40.3079 1.57208 40.6439 1.04408L40.8599 0.936078L42.0119 1.00808L42.1199 1.15208L42.6959 1.22408C43.4399 1.32008 43.9439 1.47608 44.2079 1.69208C44.2319 1.78808 44.3039 1.94408 44.4239 2.16008C44.5679 2.35208 44.6399 2.55608 44.6399 2.77208C44.5919 2.96408 44.4239 3.18008 44.1359 3.42008C43.8719 3.63608 43.6319 3.78008 43.4159 3.85208L43.3079 5.14808C43.2359 6.03608 43.1639 6.55208 43.0919 6.69608C42.9479 6.84008 42.8399 6.99608 42.7679 7.16408L42.8759 7.63208C43.0199 7.77608 43.1159 7.94408 43.1639 8.13608C43.2119 8.32808 43.3079 8.49608 43.4519 8.64008C44.2919 8.16008 44.8199 7.92008 45.0359 7.92008C45.2519 7.96808 45.4799 8.07608 45.7199 8.24408C45.9599 8.41208 46.1879 8.52008 46.4039 8.56808C46.5239 8.68808 46.5959 8.80808 46.6199 8.92808L46.7999 9.07208L46.9799 9.00008V8.85608C46.9799 8.52008 47.0999 8.22008 47.3399 7.95608C47.6999 7.95608 47.9999 7.98008 48.2399 8.02808L48.3479 8.17208C48.4679 8.19608 48.6839 8.31608 48.9959 8.53208C49.3079 8.72408 49.5359 8.84408 49.6799 8.89208L49.7519 9.00008C49.8959 9.04808 50.1839 9.09608 50.6159 9.14408C51.0719 9.19208 51.4199 9.25208 51.6599 9.32408C51.9239 9.39608 52.0559 9.51608 52.0559 9.68408C52.0559 9.92408 51.8999 10.0441 51.5879 10.0441C51.5159 10.0441 51.3839 10.0321 51.1919 10.0081C50.9999 9.96008 50.8679 9.93608 50.7959 9.93608C50.6039 9.93608 50.2319 10.0561 49.6799 10.2961V10.4401H49.4999C49.4519 10.5361 49.4279 10.6321 49.4279 10.7281L49.4639 11.0881C49.4879 11.5681 49.5479 12.0001 49.6439 12.3841C49.9079 12.4561 50.2319 12.5161 50.6159 12.5641C51.0959 12.6121 51.4799 12.7201 51.7679 12.8881C52.3919 12.9841 53.0039 13.0561 53.6039 13.1041L53.7119 13.2481C53.9759 13.1761 54.1679 13.1041 54.2879 13.0321L54.1799 12.9241C53.9879 12.9241 53.8199 12.8521 53.6759 12.7081L53.6399 12.3481C53.6399 11.9161 53.6759 11.5081 53.7479 11.1241C53.7719 10.9081 53.7839 10.7281 53.7839 10.5841C53.6159 10.2241 53.4119 9.90008 53.1719 9.61208V9.39608C53.3159 9.15608 53.5079 8.91608 53.7479 8.67608L54.1079 8.20808C53.9159 8.11208 53.7239 7.77608 53.5319 7.20008C53.4599 6.96008 53.3999 6.80408 53.3519 6.73208C53.3279 6.66008 52.9679 6.57608 52.2719 6.48008C51.5759 6.38408 51.1319 6.33608 50.9399 6.33608C49.9799 6.38408 49.0559 6.40808 48.1679 6.40808C47.5199 6.40808 47.0759 6.28808 46.8359 6.04808L45.7199 5.76008L45.5759 5.61608V5.43608C45.7199 5.34008 46.1159 5.23208 46.7639 5.11208C47.4119 4.99208 47.8439 4.93208 48.0599 4.93208C49.5719 4.93208 50.7959 5.05208 51.7319 5.29208C52.1399 5.38808 52.4879 5.43608 52.7759 5.43608L53.0999 5.40008L53.2799 5.14808C53.3279 4.95608 53.3519 4.78808 53.3519 4.64408L53.3159 4.03208C53.2919 3.64808 53.2799 3.08408 53.2799 2.34008ZM56.3039 3.09608C56.1839 3.45608 56.1239 3.79208 56.1239 4.10408C56.1239 4.29608 56.1719 4.58408 56.2679 4.96808L56.3399 5.22008C56.9639 5.26808 57.5759 5.29208 58.1759 5.29208C58.7999 5.29208 59.4479 5.26808 60.1199 5.22008C60.1199 5.14808 59.9399 5.04008 59.5799 4.89608L59.1839 4.71608C59.0879 4.47608 58.9439 4.20008 58.7519 3.88808C58.5599 3.57608 58.4279 3.26408 58.3559 2.95208C58.2839 2.83208 58.1759 2.72408 58.0319 2.62808C57.8879 2.50808 57.7919 2.43608 57.7439 2.41208C57.6959 2.36408 57.6239 2.32808 57.5279 2.30408C57.4559 2.28008 57.4079 2.26808 57.3839 2.26808C57.2399 2.26808 57.0599 2.38808 56.8439 2.62808C56.6519 2.86808 56.4719 3.02408 56.3039 3.09608ZM59.2559 9.75608C58.9919 9.75608 58.6199 9.78008 58.1399 9.82808L57.8519 9.86408L57.5639 10.0441C57.4199 10.0681 57.2039 10.0921 56.9159 10.1161C56.4839 10.1641 56.1599 10.2241 55.9439 10.2961C55.9439 10.3921 56.0039 10.8001 56.1239 11.5201C56.1719 11.9041 56.2079 12.1201 56.2319 12.1681C56.2559 12.1921 56.6039 12.2521 57.2759 12.3481C57.9479 12.4441 58.3799 12.4921 58.5719 12.4921C58.8359 12.4921 59.2679 12.3601 59.8679 12.0961C60.4919 11.8321 60.8039 11.6041 60.8039 11.4121C60.8039 11.1721 60.7799 10.8121 60.7319 10.3321L60.6959 10.1161L60.5159 9.86408L60.2639 9.82808C59.8319 9.78008 59.4959 9.75608 59.2559 9.75608ZM42.9119 10.8001C42.8399 11.0641 42.8039 11.3161 42.8039 11.5561H42.9839V12.3841H42.8039V13.9321H42.9839C43.0319 14.4601 43.0559 14.9761 43.0559 15.4801C43.0559 16.0321 43.0319 16.5961 42.9839 17.1721H42.8039V17.8921H42.9839C43.0319 18.0841 43.0559 18.3001 43.0559 18.5401L43.0199 19.0801V19.6561C43.0199 20.3761 43.1039 20.9041 43.2719 21.2401L44.6399 21.2041L45.7559 21.2401C46.3079 21.2401 46.8599 21.2161 47.4119 21.1681L47.4839 20.9881V20.8441H47.3039L47.2679 20.6641L47.1239 20.4481C47.1239 20.0161 47.1599 19.3681 47.2319 18.5041L47.3039 17.1721H47.4839V15.4801H47.3039C47.3039 14.8321 47.3279 14.3881 47.3759 14.1481L47.4119 13.8601L47.1239 13.2841C47.1239 13.0201 47.1719 12.6241 47.2679 12.0961C47.3639 11.5681 47.4119 11.2081 47.4119 11.0161C47.3399 10.8721 47.3039 10.7401 47.3039 10.6201C47.3039 10.5961 47.3159 10.5481 47.3399 10.4761C47.3879 10.3801 47.4119 10.3081 47.4119 10.2601L47.3399 10.1881C47.0519 10.3801 46.7039 10.5121 46.2959 10.5841C45.9119 10.6321 45.3959 10.6561 44.7479 10.6561C43.8839 10.6561 43.2719 10.7041 42.9119 10.8001ZM55.7279 13.8961C55.8479 14.2081 55.9439 14.6041 56.0159 15.0841C56.0879 15.5641 56.1719 15.9481 56.2679 16.2361C56.7479 16.2841 57.2279 16.3081 57.7079 16.3081C59.3399 16.3081 60.2159 16.2961 60.3359 16.2721C60.4559 16.2241 60.5519 16.1401 60.6239 16.0201C60.7199 15.8761 60.7679 15.7561 60.7679 15.6601C60.7679 15.2041 60.7439 14.7601 60.6959 14.3281C60.6959 14.1841 60.3359 14.0281 59.6159 13.8601C58.8959 13.6681 58.4159 13.5721 58.1759 13.5721C57.7199 13.5721 57.0479 13.6561 56.1599 13.8241L55.7279 13.8961ZM85.3199 1.08008C86.1359 1.08008 87.1799 1.18808 88.4519 1.40408C89.7239 1.62008 90.3599 1.98008 90.3599 2.48408C90.3599 3.03608 89.9879 3.93608 89.2439 5.18408C88.9559 5.64008 88.8119 5.90408 88.8119 5.97608C88.8119 6.40808 88.8359 6.99608 88.8839 7.74008C88.9559 8.46008 88.9919 9.03608 88.9919 9.46808C88.9919 9.85208 88.8959 10.2481 88.7039 10.6561C88.5119 11.0401 88.4159 11.3641 88.4159 11.6281C88.4159 12.3241 88.4639 12.8161 88.5599 13.1041C88.6559 13.3921 88.8359 13.5841 89.0999 13.6801C89.3879 13.7521 89.8679 13.7881 90.5399 13.7881C91.1639 13.7881 91.9199 13.7521 92.8079 13.6801C93.7199 13.5841 94.4879 13.5361 95.1119 13.5361C95.7359 13.5361 96.3359 13.4641 96.9119 13.3201C97.2959 13.2241 98.0999 12.4561 99.3239 11.0161L99.9359 10.3681L100.296 10.2961C100.92 10.5841 101.7 11.0641 102.636 11.7361C103.572 12.4081 104.04 13.1521 104.04 13.9681C104.04 14.3281 103.728 14.8681 103.104 15.5881L102.672 15.7681H102.6C101.592 15.6481 100.956 15.5281 100.692 15.4081C100.14 15.5041 99.5519 15.5521 98.9279 15.5521C98.4479 15.5521 97.7399 15.4921 96.8039 15.3721L96.3359 15.3361C96.2639 15.3601 96.1559 15.3721 96.0119 15.3721C95.6999 15.3721 95.3399 15.3121 94.9319 15.1921C94.5239 15.0721 94.1879 15.0121 93.9239 15.0121C93.3719 15.0121 92.6039 15.0721 91.6199 15.1921C90.6599 15.2881 89.9159 15.3361 89.3879 15.3361C89.2679 15.3361 89.1479 15.2761 89.0279 15.1561L88.8839 15.1921C88.4279 15.3121 88.1639 15.4681 88.0919 15.6601C88.2599 15.6601 88.4039 15.9121 88.5239 16.4161C88.6439 16.8961 88.7039 17.2681 88.7039 17.5321C88.7039 17.7481 88.6199 18.0361 88.4519 18.3961L88.3799 18.5761C88.3799 18.6721 88.4159 18.8041 88.4879 18.9721C88.6559 19.3801 88.7399 19.8241 88.7399 20.3041C88.7399 20.4961 88.6799 20.7241 88.5599 20.9881C88.4639 21.2521 88.4159 21.4681 88.4159 21.6361C88.4159 21.9961 88.5119 22.4281 88.7039 22.9321C88.8959 23.4361 88.9919 23.8681 88.9919 24.2281C88.9919 24.3241 88.9679 24.4801 88.9199 24.6961C88.8719 24.8881 88.8479 25.0441 88.8479 25.1641C88.8479 25.3321 88.8719 25.5481 88.9199 25.8121C88.9679 26.0521 88.9919 26.2441 88.9919 26.3881C88.9919 26.4841 88.9679 26.5921 88.9199 26.7121C88.8719 26.8321 88.8479 26.9401 88.8479 27.0361C88.8479 27.2761 88.8839 27.5521 88.9559 27.8641C89.0279 28.1761 89.1359 28.3681 89.2799 28.4401C89.3999 28.5121 89.8079 28.5961 90.5039 28.6921C91.1999 28.8121 91.6919 28.8721 91.9799 28.8721C92.0999 28.8721 92.2679 28.8361 92.4839 28.7641C92.5559 28.5961 92.7599 28.5121 93.0959 28.5121C93.6479 28.5121 94.4759 28.5721 95.5799 28.6921L96.4799 28.7641L96.5879 28.4401C96.5399 28.2001 96.5159 27.9241 96.5159 27.6121C96.7799 27.2281 97.2719 26.7361 97.9919 26.1361C98.3519 25.8481 98.6279 25.6201 98.8199 25.4521L99.1799 25.4161C99.6839 25.6801 100.356 26.1121 101.196 26.7121C102.036 27.3121 102.48 27.8161 102.528 28.2241V28.8721C102.528 29.5681 102.396 29.9881 102.132 30.1321C101.868 30.3001 101.34 30.3841 100.548 30.3841C100.044 30.3841 99.6359 30.3961 99.3239 30.4201L98.1719 30.4561C98.0039 30.4561 97.7639 30.4321 97.4519 30.3841C97.1399 30.3361 96.8879 30.3121 96.6959 30.3121C96.5759 30.3121 96.4199 30.3241 96.2279 30.3481C96.0359 30.3721 95.8799 30.3841 95.7599 30.3841C95.6159 30.3841 95.3999 30.3721 95.1119 30.3481C94.8479 30.3241 94.6439 30.3121 94.4999 30.3121C94.3319 30.3121 94.0919 30.3361 93.7799 30.3841C93.4679 30.4321 93.2159 30.4561 93.0239 30.4561L92.4119 30.3841C90.7559 30.1681 89.4119 30.0601 88.3799 30.0601C87.9959 30.0601 87.4679 30.1321 86.7959 30.2761C86.2439 30.3721 85.8359 30.4201 85.5719 30.4201L84.3479 30.3841C84.2039 30.3841 84.0239 30.4081 83.8079 30.4561C83.6159 30.5041 83.4479 30.5281 83.3039 30.5281C82.9679 30.5281 82.4759 30.5041 81.8279 30.4561C81.1799 30.4081 80.6879 30.3841 80.3519 30.3841C80.0399 30.3841 79.7039 30.3001 79.3439 30.1321C79.0079 29.9881 78.7199 29.9161 78.4799 29.9161C77.9039 30.4441 76.7879 30.7081 75.1319 30.7081C74.6519 30.7081 74.1959 30.7321 73.7639 30.7801C73.0919 30.7801 72.5879 30.6841 72.2519 30.4921C71.9159 30.3001 71.7479 29.9281 71.7479 29.3761C71.7479 28.6321 72.1679 28.2601 73.0079 28.2601C73.1759 28.2601 73.4159 28.2841 73.7279 28.3321C74.0639 28.3801 74.2319 28.4401 74.2319 28.5121C74.7119 28.4401 75.1559 28.4041 75.5639 28.4041C76.4999 28.4041 77.6159 28.4761 78.9119 28.6201C80.2319 28.7641 81.3599 28.8361 82.2959 28.8361C82.4879 28.8361 82.7399 28.8121 83.0519 28.7641C83.3639 28.7161 83.6159 28.6921 83.8079 28.6921C83.9279 28.6921 84.0839 28.7161 84.2759 28.7641L84.4559 28.8001C84.7439 28.7521 85.0319 28.6081 85.3199 28.3681L85.4279 28.2961C85.3559 27.8161 85.3199 27.3481 85.3199 26.8921C85.3199 26.3641 85.3679 25.8961 85.4639 25.4881C85.3679 25.3921 85.3199 25.1641 85.3199 24.8041C85.3199 24.6601 85.3559 24.4921 85.4279 24.3001C85.4999 24.1081 85.5359 23.9401 85.5359 23.7961C85.5359 23.6041 85.4999 23.3881 85.4279 23.1481C85.3559 22.9081 85.3199 22.6921 85.3199 22.5001C85.3439 22.3081 85.4159 22.1281 85.5359 21.9601C85.6559 21.7921 85.7159 21.5761 85.7159 21.3121L85.5359 20.9521V20.5921C85.6319 20.4001 85.6799 20.2201 85.6799 20.0521C85.4879 19.7401 85.3919 19.3201 85.3919 18.7921L85.4279 17.0641C85.4279 16.4881 85.3319 16.0441 85.1399 15.7321C84.9719 15.3961 84.6359 15.2281 84.1319 15.2281C84.0119 15.2281 83.8079 15.2521 83.5199 15.3001C83.2559 15.3241 83.0519 15.3361 82.9079 15.3361C82.6199 15.3361 82.2239 15.3241 81.7199 15.3001C81.2159 15.2761 80.8199 15.2641 80.5319 15.2641C79.8839 15.2641 78.6239 15.3361 76.7519 15.4801C75.9119 15.4561 75.3959 15.4321 75.2039 15.4081H74.9879C74.5319 15.4081 73.9199 15.4321 73.1519 15.4801C72.3839 15.5281 71.7839 15.5521 71.3519 15.5521C71.0399 15.5521 70.7879 15.3361 70.5959 14.9041C70.4039 14.4721 70.3079 14.0761 70.3079 13.7161C70.3079 13.5721 70.4159 13.4041 70.6319 13.2121C70.8719 12.9961 71.0879 12.8281 71.2799 12.7081H71.6039C72.0119 12.9481 72.3719 13.1161 72.6839 13.2121C72.9959 13.2841 73.3919 13.3201 73.8719 13.3201C73.9919 13.3201 74.1479 13.3081 74.3399 13.2841C74.5559 13.2601 74.7239 13.2481 74.8439 13.2481C75.0599 13.2481 75.3479 13.3081 75.7079 13.4281C76.0919 13.5241 76.3919 13.5721 76.6079 13.5721C76.7519 13.5721 76.9199 13.5601 77.1119 13.5361C77.3279 13.5121 77.5079 13.5001 77.6519 13.5001C78.2759 13.5001 79.1879 13.6201 80.3879 13.8601L81.8279 14.1481C82.0199 14.1001 82.1879 14.0281 82.3319 13.9321C83.4119 14.0521 84.1319 14.2081 84.4919 14.4001C84.6359 14.4961 84.8399 14.5441 85.1039 14.5441C85.1999 14.5441 85.3559 14.4601 85.5719 14.2921C85.4039 13.8121 85.2599 13.1281 85.1399 12.2401C85.0199 12.1201 84.9599 11.9761 84.9599 11.8081C84.9599 11.5201 84.9839 11.1481 85.0319 10.6921C85.1039 10.2361 85.1399 9.86408 85.1399 9.57608C85.1399 9.50408 85.1159 9.42008 85.0679 9.32408C85.0199 9.20408 84.9959 9.10808 84.9959 9.03608C84.9959 8.91608 85.0559 8.74808 85.1759 8.53208C85.2959 8.31608 85.3559 8.16008 85.3559 8.06408C85.3559 7.75208 85.2959 7.42808 85.1759 7.09208C85.0799 6.75608 85.0319 6.48008 85.0319 6.26408L85.0679 5.94008C84.9239 5.62808 84.8399 5.14808 84.8159 4.50008C84.7679 3.66008 84.6359 2.92808 84.4199 2.30408V1.94408L84.4919 1.83608C84.6119 1.59608 84.7199 1.41608 84.8159 1.29608C84.9359 1.15208 85.1039 1.08008 85.3199 1.08008ZM138.348 2.37608C138.348 2.71208 137.64 2.88008 136.224 2.88008L135.9 2.84408C135.108 2.79608 134.508 2.77208 134.1 2.77208C133.956 2.77208 133.824 2.78408 133.704 2.80808L133.74 3.99608C133.74 4.69208 133.692 5.73608 133.596 7.12808C133.524 8.49608 133.476 9.62408 133.452 10.5121C133.452 11.2321 133.284 11.8201 132.948 12.2761C132.492 12.9001 131.796 13.3921 130.86 13.7521C129.924 14.0881 129.024 14.2561 128.16 14.2561C128.04 14.2561 127.92 14.5321 127.8 15.0841C127.68 15.6361 127.62 16.0201 127.62 16.2361V18.2161C127.62 20.4961 126.636 22.7761 124.668 25.0561C122.7 27.3121 120.408 29.3281 117.792 31.1041C117.576 31.2721 117.348 31.3801 117.108 31.4281C116.868 31.4761 116.568 31.5001 116.208 31.5001L115.848 31.4281L115.812 31.2481C116.676 30.3121 117.636 29.4721 118.692 28.7281C119.484 28.1521 120.144 27.5401 120.672 26.8921C121.2 26.2201 121.92 24.9481 122.832 23.0761C123.528 21.6121 123.972 20.6041 124.164 20.0521C124.356 19.4761 124.5 18.8161 124.596 18.0721C124.716 17.3761 124.824 16.7761 124.92 16.2721C125.016 15.7681 125.34 15.4921 125.892 15.4441L126.18 15.2281L126.108 15.1921C125.94 15.1441 125.82 15.1201 125.748 15.1201C125.652 15.1201 125.496 15.1561 125.28 15.2281C125.232 15.3241 125.172 15.3721 125.1 15.3721C125.028 15.3721 124.932 15.1921 124.812 14.8321C124.668 14.3041 124.5 14.0401 124.308 14.0401C124.164 14.0401 123.96 14.0761 123.696 14.1481C123.456 14.2201 123.264 14.2561 123.12 14.2561C122.904 14.2561 122.676 14.1961 122.436 14.0761C121.524 14.1961 120.84 14.2561 120.384 14.2561C120.144 14.2561 119.988 14.1961 119.916 14.0761C119.868 13.9321 119.844 13.7281 119.844 13.4641C119.844 13.0801 120.036 12.8641 120.42 12.8161L121.464 12.8521C122.112 12.8521 122.436 13.0441 122.436 13.4281C123.252 13.4281 123.78 13.2361 124.02 12.8521C124.26 12.4681 124.416 11.8921 124.488 11.1241L124.596 10.2961C124.74 9.48008 124.86 8.66408 124.956 7.84808C124.86 7.75208 124.788 7.62008 124.74 7.45208L124.812 7.30808L124.92 7.23608C124.608 5.36408 124.452 3.93608 124.452 2.95208L124.164 2.80808C123.9 2.68808 123.708 2.58008 123.588 2.48408C123.468 2.36408 123.396 2.17208 123.372 1.90808C123.756 1.69208 124.848 1.54808 126.648 1.47608C128.448 1.40408 130.104 1.36808 131.616 1.36808C131.712 1.46408 131.856 1.58408 132.048 1.72808C132.264 1.63208 132.696 1.40408 133.344 1.04408C134.568 0.348077 135.372 7.70092e-05 135.756 7.70092e-05C136.26 7.70092e-05 136.812 0.288077 137.412 0.864077C138.036 1.41608 138.348 1.92008 138.348 2.37608ZM122.76 1.98008C122.76 2.14808 122.484 2.29208 121.932 2.41208C121.404 2.50808 120.984 2.55608 120.672 2.55608C120.36 2.55608 120.012 2.46008 119.628 2.26808C119.244 2.07608 119.052 1.84808 119.052 1.58408L119.196 1.51208C119.436 1.34408 120.12 1.26008 121.248 1.26008C121.536 1.26008 121.86 1.33208 122.22 1.47608C122.58 1.59608 122.76 1.76408 122.76 1.98008ZM130.824 8.31608C130.824 8.12408 130.872 7.28408 130.968 5.79608C131.088 4.28408 131.16 3.51608 131.184 3.49208C130.584 2.98808 130.128 2.73608 129.816 2.73608C129.504 2.73608 129.096 2.89208 128.592 3.20408C128.088 3.51608 127.812 3.80408 127.764 4.06808C127.644 4.78808 127.584 6.58808 127.584 9.46808C127.584 9.87608 127.74 10.5961 128.052 11.6281C128.388 12.6361 128.688 13.1401 128.952 13.1401H130.284C130.764 13.1401 131.004 12.9481 131.004 12.5641C131.004 10.5001 130.968 9.33608 130.896 9.07208C130.848 8.78408 130.824 8.53208 130.824 8.31608ZM120.24 4.78808C120.096 4.93208 119.94 5.00408 119.772 5.00408C119.532 5.00408 119.148 4.99208 118.62 4.96808C118.116 4.94408 117.768 4.93208 117.576 4.93208C117.192 4.93208 116.76 5.04008 116.28 5.25608C115.824 5.47208 115.38 5.58008 114.948 5.58008C114.516 6.32408 114.216 7.03208 114.048 7.70408C113.88 8.35208 113.796 9.12008 113.796 10.0081C113.796 10.0801 113.82 10.1521 113.868 10.2241C114.732 10.6561 115.308 10.8721 115.596 10.8721C115.932 10.8721 116.376 10.6921 116.928 10.3321C117.288 10.0921 117.552 9.97208 117.72 9.97208C118.152 9.97208 118.572 10.1761 118.98 10.5841C119.388 10.9921 119.592 11.4001 119.592 11.8081C119.592 12.0241 119.532 12.3241 119.412 12.7081C119.292 13.0921 119.232 13.4041 119.232 13.6441C119.232 13.7641 119.244 13.9321 119.268 14.1481C119.292 14.3401 119.304 14.5201 119.304 14.6881C119.304 14.8321 119.292 15.0361 119.268 15.3001C119.244 15.5401 119.232 15.7321 119.232 15.8761C119.232 16.0681 119.256 16.2361 119.304 16.3801L119.34 16.7041C119.34 16.9921 119.316 17.4121 119.268 17.9641C119.22 18.5161 119.196 18.9481 119.196 19.2601C119.196 19.5481 119.22 19.9321 119.268 20.4121C119.34 20.8681 119.376 21.2401 119.376 21.5281C119.376 21.9121 119.124 22.5121 118.62 23.3281C118.14 24.1441 117.744 24.5521 117.432 24.5521C117.384 24.5521 117.252 24.3961 117.036 24.0841C116.364 23.1001 115.752 22.4761 115.2 22.2121L115.128 22.0321C115.128 21.9361 115.236 21.8161 115.452 21.6721C115.836 21.4561 116.136 21.1681 116.352 20.8081C116.592 20.4481 116.712 19.8481 116.712 19.0081C116.712 17.8801 116.676 16.8721 116.604 15.9841C116.58 15.5281 116.568 15.1441 116.568 14.8321C116.568 14.5441 116.58 14.1361 116.604 13.6081C116.652 13.0561 116.676 12.6361 116.676 12.3481C116.676 12.0121 116.652 11.7001 116.604 11.4121C115.668 11.4121 114.996 11.5801 114.588 11.9161C114.204 12.2281 113.952 12.8641 113.832 13.8241C113.928 14.0161 113.976 14.1601 113.976 14.2561C113.976 14.3281 113.94 14.3641 113.868 14.3641C113.868 15.1081 113.892 15.6361 113.94 15.9481L113.976 16.4161C113.976 16.5601 113.964 16.7521 113.94 16.9921C113.916 17.2081 113.904 17.3881 113.904 17.5321C113.904 17.6041 113.916 17.7241 113.94 17.8921C113.964 18.0601 113.976 18.1801 113.976 18.2521C113.976 18.5401 113.952 18.9481 113.904 19.4761C113.856 19.9801 113.832 20.3761 113.832 20.6641C113.832 21.0001 113.892 21.3721 114.012 21.7801C114.156 22.1641 114.228 22.5121 114.228 22.8241C114.228 23.9281 114.048 24.7921 113.688 25.4161C113.328 26.0161 112.68 26.5681 111.744 27.0721L111.528 27.0361C111.216 26.7721 111.06 26.3761 111.06 25.8481C111.06 22.0081 111.12 19.9321 111.24 19.6201C111.48 18.9721 111.636 18.2041 111.708 17.3161C111.588 17.1961 111.528 17.0641 111.528 16.9201C111.528 16.6321 111.588 16.2001 111.708 15.6241L111.744 15.4441C111.576 15.4441 111.492 15.3721 111.492 15.2281C111.348 15.2281 111.144 15.4561 110.88 15.9121C110.616 16.3441 110.28 16.9801 109.872 17.8201C109.272 18.9961 108.888 19.6681 108.72 19.8361C108.648 19.9081 108.444 20.0761 108.108 20.3401C107.796 20.6041 107.604 20.7361 107.532 20.7361C107.316 20.7361 107.208 20.5561 107.208 20.1961C107.208 20.1481 107.376 19.6441 107.712 18.6841C110.16 11.6041 111.384 7.17608 111.384 5.40008C111.12 5.23208 110.532 5.14808 109.62 5.14808C109.404 5.14808 109.164 5.18408 108.9 5.25608C108.636 5.30408 108.42 5.32808 108.252 5.32808L107.928 5.25608C107.664 5.08808 107.448 4.93208 107.28 4.78808C107.136 4.62008 107.064 4.40408 107.064 4.14008C107.064 3.85208 107.112 3.58808 107.208 3.34808C107.328 3.08408 107.508 2.95208 107.748 2.95208C108.084 2.95208 108.816 3.10808 109.944 3.42008C111.6 3.85208 112.8 4.06808 113.544 4.06808C113.928 4.06808 114.564 4.03208 115.452 3.96008C116.34 3.88808 116.808 3.80408 116.856 3.70808C116.976 3.51608 117.192 3.28808 117.504 3.02408C117.84 2.76008 118.08 2.62808 118.224 2.62808C118.704 2.62808 119.112 2.85608 119.448 3.31208C119.784 3.74408 120.048 4.23608 120.24 4.78808ZM138.06 11.1601C138.3 10.9441 138.468 10.8361 138.564 10.8361C138.756 10.8361 139.032 11.0641 139.392 11.5201C139.776 11.9521 139.968 12.2521 139.968 12.4201C139.968 12.9001 139.8 13.3801 139.464 13.8601L139.104 13.7521C138.84 13.7761 138.396 13.8001 137.772 13.8241C136.908 13.8481 136.188 13.8961 135.612 13.9681C135.036 14.0161 134.544 14.1481 134.136 14.3641C133.992 14.4601 133.872 14.7961 133.776 15.3721C133.68 15.9481 133.632 16.3801 133.632 16.6681C133.632 16.8121 133.644 17.0281 133.668 17.3161C133.692 17.5801 133.704 17.7841 133.704 17.9281C133.704 18.1201 133.608 18.2161 133.416 18.2161C133.608 18.5041 133.704 18.7201 133.704 18.8641C133.704 19.9441 133.428 20.8561 132.876 21.6001L133.128 21.6361L133.38 21.8161C133.596 21.9601 133.74 22.0801 133.812 22.1761C133.884 22.2481 133.92 22.3441 133.92 22.4641C133.92 22.9201 133.884 23.5201 133.812 24.2641C133.74 24.9841 133.704 25.5961 133.704 26.1001C133.704 26.2921 133.608 26.3881 133.416 26.3881C133.776 27.1081 133.956 27.7801 133.956 28.4041C133.956 28.9801 133.74 29.6881 133.308 30.5281C132.9 31.3681 132.456 31.7881 131.976 31.7881C131.592 31.7881 131.256 31.4401 130.968 30.7441C130.68 30.0481 130.536 29.4601 130.536 28.9801V26.3881C130.536 26.1961 130.632 26.1001 130.824 26.1001C130.608 25.6921 130.5 25.2961 130.5 24.9121C130.524 24.5521 130.536 24.3001 130.536 24.1561C130.536 24.0121 130.536 23.7961 130.536 23.5081C130.536 23.1961 130.68 22.8121 130.968 22.3561L130.896 22.2841C130.752 22.1641 130.656 22.0561 130.608 21.9601C130.56 21.8641 130.536 21.7441 130.536 21.6001C130.536 18.1441 130.704 15.9121 131.04 14.9041C131.232 14.3041 131.784 13.8361 132.696 13.5001C133.632 13.1401 134.436 12.9601 135.108 12.9601C135.54 12.9601 135.984 12.8041 136.44 12.4921C136.92 12.1561 137.46 11.7121 138.06 11.1601ZM149.472 12.8161L149.796 12.6721C149.94 12.5281 150.192 12.3721 150.552 12.2041L151.236 11.4841L151.776 11.2321L151.848 11.0881C152.208 10.2481 152.916 9.69608 153.972 9.43208C154.068 9.21608 154.14 9.00008 154.188 8.78408C154.236 8.54408 154.296 8.35208 154.368 8.20808C154.464 8.06408 154.656 7.84808 154.944 7.56008L155.7 7.30808L155.808 6.98408L155.664 6.73208L155.376 6.62408C155.328 6.52808 155.136 6.39608 154.8 6.22808L154.656 6.15608C154.632 6.10808 154.572 6.03608 154.476 5.94008C154.236 5.84408 153.996 5.79608 153.756 5.79608C153.54 5.79608 153.216 5.86808 152.784 6.01208C152.472 5.91608 151.848 5.85608 150.912 5.83208C150.408 5.83208 149.892 5.85608 149.364 5.90408C149.34 6.12008 149.316 6.45608 149.292 6.91208C149.244 7.58408 149.184 8.08808 149.112 8.42408L148.932 8.60408C148.764 8.65208 148.608 8.74808 148.464 8.89208L148.392 9.14408C148.248 9.31208 148.176 9.44408 148.176 9.54008L148.212 9.61208C148.212 9.80408 147.828 10.1641 147.06 10.6921C146.292 11.2201 145.5 11.6281 144.684 11.9161L144.324 11.8081L144.144 11.5921L144.072 11.2681C144.024 11.0041 143.952 10.8121 143.856 10.6921L143.568 10.5841L143.388 10.4041L143.316 10.1881C143.412 9.94808 143.64 9.74408 144 9.57608C144.072 9.55208 144.12 9.51608 144.144 9.46808C144.168 9.39608 144.192 9.27608 144.216 9.10808C144.264 8.84408 144.324 8.62808 144.396 8.46008L144.612 8.28008C144.876 8.20808 145.044 8.02808 145.116 7.74008C145.452 7.47608 145.704 7.14008 145.872 6.73208C146.016 6.66008 146.16 6.52808 146.304 6.33608C146.424 6.31208 146.556 6.25208 146.7 6.15608C146.868 6.06008 147.036 6.01208 147.204 6.01208C147.444 5.77208 147.564 5.58008 147.564 5.43608C147.588 5.26808 147.648 5.11208 147.744 4.96808C147.912 4.77608 148.056 4.58408 148.176 4.39208C148.104 4.27208 147.984 4.14008 147.816 3.99608C147.648 3.82808 147.54 3.67208 147.492 3.52808C147.54 3.38408 147.684 3.20408 147.924 2.98808L148.032 2.88008L148.752 2.55608L148.968 2.66408L149.364 3.13208C149.724 3.27608 149.976 3.42008 150.12 3.56408C150.144 3.63608 150.192 3.72008 150.264 3.81608C150.36 4.03208 150.42 4.20008 150.444 4.32008C151.188 4.58408 152.016 4.71608 152.928 4.71608C153.264 4.71608 153.588 4.65608 153.9 4.53608C154.188 4.65608 154.464 4.71608 154.728 4.71608C154.992 4.71608 155.328 4.65608 155.736 4.53608L155.952 4.60808C156.192 4.68008 156.36 4.71608 156.456 4.71608C156.744 4.71608 157.152 4.65608 157.68 4.53608C158.232 4.39208 158.508 4.26008 158.508 4.14008C158.508 4.06808 158.472 3.96008 158.4 3.81608L158.364 3.67208L158.256 3.56408C158.016 3.34808 157.872 3.16808 157.824 3.02408L157.932 2.80808C157.98 2.78408 158.052 2.72408 158.148 2.62808L158.256 2.30408L158.148 1.94408C158.1 1.92008 158.028 1.86008 157.932 1.76408L157.824 1.44008L157.932 1.08008C158.028 0.960076 158.22 0.840076 158.508 0.720076C158.796 0.600076 159 0.492076 159.12 0.396076C159.504 0.348077 159.864 0.324077 160.2 0.324077C160.392 0.324077 160.644 0.348077 160.956 0.396076L161.244 0.432078L161.928 1.11608C161.976 1.35608 162 1.53608 162 1.65608C162 1.84808 161.964 2.12408 161.892 2.48408C161.82 2.82008 161.784 3.08408 161.784 3.27608C161.784 3.54008 161.844 3.87608 161.964 4.28408L162.18 4.32008C162.756 4.44008 163.152 4.57208 163.368 4.71608L163.548 4.60808C163.98 4.56008 164.412 4.53608 164.844 4.53608C165.204 4.53608 165.672 4.57208 166.248 4.64408C166.824 4.69208 167.292 4.71608 167.652 4.71608C168.18 4.71608 168.708 4.66808 169.236 4.57208C169.404 4.40408 169.5 4.23608 169.524 4.06808C169.572 3.90008 169.644 3.73208 169.74 3.56408C169.836 3.49208 169.968 3.37208 170.136 3.20408L170.208 3.13208C170.328 3.10808 170.496 3.06008 170.712 2.98808C170.928 2.89208 171.108 2.83208 171.252 2.80808C171.708 2.90408 172.56 3.18008 173.808 3.63608C174.144 3.92408 174.456 4.23608 174.744 4.57208C174.792 4.81208 174.816 4.99208 174.816 5.11208C174.816 5.25608 174.792 5.42408 174.744 5.61608L174.708 5.72408C174.588 5.86808 174.396 6.06008 174.132 6.30008L173.772 6.62408L173.592 6.66008C173.376 6.70808 173.208 6.73208 173.088 6.73208C172.92 6.73208 172.704 6.69608 172.44 6.62408C172.2 6.55208 172.008 6.51608 171.864 6.51608C171.696 6.51608 171.492 6.56408 171.252 6.66008L170.82 7.12808C170.652 7.17608 170.4 7.23608 170.064 7.30808C169.848 7.33208 169.68 7.35608 169.56 7.38008C169.32 8.05208 169.008 8.62808 168.624 9.10808L168.516 9.14408C168.3 9.19208 168.144 9.21608 168.048 9.21608C167.928 9.21608 167.724 9.18008 167.436 9.10808L167.256 8.92808C167.208 8.73608 167.184 8.58008 167.184 8.46008C167.184 8.36408 167.22 8.20808 167.292 7.99208L167.724 7.56008C167.82 7.32008 167.868 7.04408 167.868 6.73208C167.868 6.49208 167.82 6.25208 167.724 6.01208C167.604 5.96408 167.436 5.89208 167.22 5.79608C167.004 5.67608 166.824 5.59208 166.68 5.54408C166.32 5.68808 166.044 5.76008 165.852 5.76008C165.708 5.76008 165.516 5.72408 165.276 5.65208C165.06 5.58008 164.88 5.54408 164.736 5.54408C164.544 5.54408 164.352 5.60408 164.16 5.72408C163.968 5.82008 163.8 5.88008 163.656 5.90408C163.608 6.36008 163.548 7.04408 163.476 7.95608C163.452 8.58008 163.428 9.04808 163.404 9.36008C162.996 9.91208 162.792 10.5121 162.792 11.1601C162.792 11.3041 162.852 11.5081 162.972 11.7721L163.008 11.8801L163.296 11.7361L164.484 11.6281C165.804 11.4841 166.836 11.3281 167.58 11.1601C168.06 11.2801 168.42 11.3401 168.66 11.3401C169.308 11.3401 169.752 11.0401 169.992 10.4401C170.064 10.3441 170.172 10.2721 170.316 10.2241C170.46 10.1521 170.58 10.0801 170.676 10.0081C170.868 9.96008 171.024 9.93608 171.144 9.93608C171.24 9.93608 171.384 9.96008 171.576 10.0081C171.696 10.1041 171.828 10.1761 171.972 10.2241C172.116 10.2721 172.236 10.4161 172.332 10.6561C172.26 10.8001 172.2 10.9681 172.152 11.1601L172.296 11.5201L172.512 11.7001L172.8 12.2761L173.016 12.4201L173.088 12.6001L172.98 12.8521L172.548 13.2841L172.224 13.3921C171.864 13.2481 171.576 13.1761 171.36 13.1761L169.416 13.3921C168.552 13.4881 168.096 13.5481 168.048 13.5721C167.88 13.6201 167.76 13.6441 167.688 13.6441C167.592 13.6441 167.436 13.6081 167.22 13.5361C167.196 13.4881 167.136 13.4161 167.04 13.3201L166.68 13.1761L166.32 13.3201L165.888 13.7881C165.696 13.8361 165.552 13.8601 165.456 13.8601C165.24 13.8601 164.94 13.7881 164.556 13.6441L163.98 13.4281L163.368 13.6441L163.008 13.5361C162.84 13.2001 162.096 12.8521 160.776 12.4921L160.524 12.4201L160.164 12.5641L159.948 12.7801L159.876 12.9961L159.984 13.2481L160.2 13.4281L160.164 13.6081L159.984 13.7881C159.36 14.0761 158.988 14.3881 158.868 14.7241C158.94 14.8681 159.036 15.0001 159.156 15.1201C159.3 15.2161 159.408 15.3001 159.48 15.3721L159.552 15.5521C159.432 15.7921 159.372 16.0081 159.372 16.2001C159.372 16.5601 159.672 16.8841 160.272 17.1721C160.344 17.3161 160.476 17.4241 160.668 17.4961C160.86 17.3761 161.112 17.3161 161.424 17.3161C161.688 17.3161 161.964 17.3761 162.252 17.4961L162.612 17.3521L162.828 17.1361C163.092 17.0401 163.332 16.8841 163.548 16.6681L163.908 16.5241C164.148 16.4041 164.388 16.3441 164.628 16.3441C164.94 16.3441 165.12 16.3681 165.168 16.4161C165.552 16.6561 166.068 16.8481 166.716 16.9921L167.4 17.1721L167.58 17.3521L167.652 17.6761L167.544 18.0361C167.448 18.1321 167.376 18.1921 167.328 18.2161C167.184 18.6001 166.968 18.9001 166.68 19.1161L166.356 19.4401C166.116 20.4001 165.996 21.0481 165.996 21.3841C165.996 21.6481 166.056 21.9241 166.176 22.2121L166.068 22.4641C165.972 22.5601 165.9 22.6201 165.852 22.6441L165.78 22.8601C165.9 23.0761 166.032 23.3521 166.176 23.6881C166.128 23.8561 166.044 24.0361 165.924 24.2281C165.828 24.3961 165.78 24.5881 165.78 24.8041C165.78 24.9241 165.804 25.0921 165.852 25.3081L165.924 25.5601L165.852 25.8121C165.804 26.0281 165.78 26.1841 165.78 26.2801C165.78 26.3761 165.804 26.5201 165.852 26.7121C165.9 26.9041 165.924 27.0481 165.924 27.1441C165.924 27.3121 165.876 27.5161 165.78 27.7561L165.852 27.9721C165.948 28.2121 166.032 28.3921 166.104 28.5121C166.32 28.5841 166.476 28.6201 166.572 28.6201C166.74 28.6201 167.076 28.5121 167.58 28.2961C167.676 28.2481 167.736 28.2001 167.76 28.1521C167.808 28.1281 167.88 28.0681 167.976 27.9721L168.192 27.9001C168.288 27.9241 168.564 28.0681 169.02 28.3321C169.356 28.5241 169.764 28.6201 170.244 28.6201C170.724 28.6201 171.54 28.4041 172.692 27.9721C172.716 27.8761 172.74 27.7441 172.764 27.5761C172.812 27.3121 172.872 27.0961 172.944 26.9281C173.088 26.7841 173.196 26.6161 173.268 26.4241C173.196 26.2321 173.136 26.0281 173.088 25.8121L173.196 25.4521C173.412 25.2361 173.52 25.0201 173.52 24.8041C173.52 24.6601 173.46 24.4921 173.34 24.3001L173.304 24.1921L173.412 23.9761C173.508 23.9041 173.64 23.7841 173.808 23.6161L173.88 23.5441L174.024 23.2201L173.952 23.0401C173.856 22.7521 173.808 22.5241 173.808 22.3561C173.808 22.1161 173.94 21.9961 174.204 21.9961C174.3 21.9961 174.396 22.0201 174.492 22.0681C174.516 22.2361 174.54 22.4641 174.564 22.7521C174.612 23.2561 174.696 23.6521 174.816 23.9401C174.696 24.2521 174.636 24.7921 174.636 25.5601C174.636 25.8241 174.66 26.1841 174.708 26.6401L174.744 27.0361C174.816 27.0841 174.9 27.1561 174.996 27.2521C175.092 27.3481 175.164 27.4081 175.212 27.4321C175.236 27.5521 175.26 27.7081 175.284 27.9001C175.332 28.0921 175.38 28.2121 175.428 28.2601C175.476 28.3081 175.644 28.3801 175.932 28.4761L176.04 28.5121L176.22 28.7281L176.292 29.0521L176.184 29.3761L176.004 29.5561L175.752 29.6641C175.296 29.8321 174.96 29.9641 174.744 30.0601L174.6 30.3481C174.504 30.5641 174.408 30.6961 174.312 30.7441C174.216 30.7921 174.072 30.8521 173.88 30.9241C172.92 31.2841 172.152 31.4641 171.576 31.4641L171.288 31.4281C170.832 31.4281 170.412 31.4881 170.028 31.6081C169.548 31.4881 169.092 31.4281 168.66 31.4281C168.156 31.4281 167.748 31.4881 167.436 31.6081L167.292 31.5361C166.86 31.3681 166.488 31.2481 166.176 31.1761C165.888 31.1281 165.384 31.0801 164.664 31.0321C164.4 31.0321 164.16 30.9841 163.944 30.8881C163.752 30.8881 163.548 30.7801 163.332 30.5641C163.14 30.3481 162.972 30.1921 162.828 30.0961C162.78 29.8561 162.756 29.6641 162.756 29.5201C162.756 28.9681 162.864 28.1881 163.08 27.1801C163.176 27.1081 163.308 26.9881 163.476 26.8201L163.548 26.7481L163.692 26.4241C163.548 26.1361 163.476 25.8841 163.476 25.6681C163.62 24.9721 163.692 24.0721 163.692 22.9681C163.692 22.6081 163.656 21.8521 163.584 20.7001L163.476 20.4841C163.62 20.2201 163.692 19.9441 163.692 19.6561C163.692 19.4641 163.632 19.1881 163.512 18.8281L163.476 18.7201C162.9 18.6241 162.324 18.5761 161.748 18.5761C160.644 18.5761 159.54 18.7081 158.436 18.9721C158.34 19.0681 158.244 19.2121 158.148 19.4041L158.256 19.6561L158.976 20.3041L159.048 20.4841L158.94 20.7361C158.724 20.8321 158.568 21.0721 158.472 21.4561C158.4 21.8161 158.34 22.3081 158.292 22.9321C158.268 23.2921 158.244 23.5441 158.22 23.6881C158.148 23.8321 157.944 23.9641 157.608 24.0841L157.5 24.1201C157.452 24.3121 157.404 24.5761 157.356 24.9121C157.308 25.2241 157.26 25.4761 157.212 25.6681L157.032 25.8481C156.552 26.0401 156.24 26.2081 156.096 26.3521C156.048 26.4961 155.976 26.6761 155.88 26.8921C155.808 27.1081 155.76 27.2641 155.736 27.3601L155.556 27.5401C155.436 27.5881 155.256 27.6361 155.016 27.6841C154.776 27.7321 154.572 27.8041 154.404 27.9001L154.152 27.7921C154.128 27.7441 154.068 27.6721 153.972 27.5761L153.648 27.4321L153.324 27.5401L153.216 27.9001C153.288 28.0681 153.348 28.2841 153.396 28.5481L153.288 28.8721L153.108 29.0521L152.424 29.1601C151.8 29.2561 151.368 29.3881 151.128 29.5561C150.84 29.6761 150.66 29.7841 150.588 29.8801C150.516 30.0001 150.444 30.1921 150.372 30.4561L150.336 30.6001L150.156 30.7801C149.58 30.8761 149.088 30.9841 148.68 31.1041L148.464 31.3201L148.356 31.5721L148.176 31.7521C147.816 31.8961 147.576 32.0641 147.456 32.2561C147.216 32.3041 147.036 32.3281 146.916 32.3281C146.484 32.3281 145.704 32.2081 144.576 31.9681L144.396 31.7881V31.6441L144.972 31.1761C145.476 30.7921 145.836 30.4681 146.052 30.2041C146.412 30.0601 146.868 29.9401 147.42 29.8441C147.972 29.7481 148.44 29.6161 148.824 29.4481C148.896 29.3521 149.028 29.2561 149.22 29.1601C149.532 28.9921 149.748 28.8121 149.868 28.6201C150.012 28.4521 150.3 28.3321 150.732 28.2601C151.164 28.1881 151.464 28.1041 151.632 28.0081C151.56 27.9121 151.488 27.7441 151.416 27.5041L151.524 27.1801C151.62 27.0841 151.872 26.9401 152.28 26.7481C152.904 26.4361 153.54 25.9441 154.188 25.2721C154.236 25.1521 154.284 24.9841 154.332 24.7681C154.38 24.5281 154.428 24.3481 154.476 24.2281C154.644 24.1321 154.764 23.9401 154.836 23.6521C154.884 23.4841 154.932 23.3401 154.98 23.2201L155.196 23.0401L156.816 22.8601C156.72 22.7641 156.576 22.6921 156.384 22.6441L156.204 22.4281L156.096 22.1041C156.24 21.7441 156.312 21.4561 156.312 21.2401C156.312 21.1441 156.288 21.0241 156.24 20.8801C156.216 20.7361 156.204 20.6161 156.204 20.5201C156.3 20.4481 156.432 20.3281 156.6 20.1601L156.672 20.0881L156.708 19.9801C156.756 19.7641 156.78 19.6081 156.78 19.5121C156.78 19.4161 156.744 19.2601 156.672 19.0441C156.096 18.8041 155.736 18.5521 155.592 18.2881L155.7 18.0721C155.796 18.0001 155.928 17.8801 156.096 17.7121L156.168 17.6401C156.432 17.5441 156.66 17.3881 156.852 17.1721C156.948 17.0521 157.044 16.9681 157.14 16.9201C157.188 16.7041 157.236 16.4041 157.284 16.0201C157.332 15.6361 157.38 15.3361 157.428 15.1201L157.644 14.9401L157.788 14.9041C158.292 14.8321 158.544 14.6881 158.544 14.4721C158.544 14.3761 158.496 14.2561 158.4 14.1121L158.112 14.0041L157.932 13.7881L157.896 13.6801C157.848 13.4641 157.824 13.3081 157.824 13.2121C157.824 13.0441 157.884 12.8041 158.004 12.4921L157.932 12.3121V12.1681L158.148 11.9881C158.268 11.9641 158.424 11.9161 158.616 11.8441C158.904 11.7241 159.144 11.6641 159.336 11.6641C159.456 11.6641 159.612 11.7001 159.804 11.7721C160.02 11.8201 160.188 11.8441 160.308 11.8441C160.452 11.8441 160.644 11.7961 160.884 11.7001L161.1 11.4841C161.124 11.2201 161.148 10.8001 161.172 10.2241C161.196 8.95208 161.292 8.11208 161.46 7.70408C161.364 7.44008 161.304 7.12808 161.28 6.76808C161.256 6.38408 161.196 6.04808 161.1 5.76008C160.836 5.61608 159.936 5.54408 158.4 5.54408C157.704 5.59208 157.356 5.78408 157.356 6.12008C157.356 6.24008 157.452 6.48008 157.644 6.84008L157.824 7.20008C157.776 7.39208 157.716 7.56008 157.644 7.70408C157.74 7.92008 157.8 8.12408 157.824 8.31608L157.716 8.67608L157.284 9.10808L156.816 9.18008C156.408 9.22808 156.096 9.31208 155.88 9.43208C155.976 9.60008 156.048 9.80408 156.096 10.0441L155.988 10.4041L155.556 10.8361L155.304 10.9081L155.124 11.1961C155.124 11.2681 155.1 11.3881 155.052 11.5561L155.016 11.6281C154.776 11.9161 154.296 12.1201 153.576 12.2401C153.072 12.3361 152.76 12.4441 152.64 12.5641L152.532 12.8521L152.46 12.9241C152.292 13.0921 152.184 13.2121 152.136 13.2841C151.56 13.5241 151.116 13.6921 150.804 13.7881L150.624 14.0041C150.552 14.1961 150.48 14.4841 150.408 14.8681L150.336 15.3001L150.156 15.4801C149.892 15.5281 149.496 15.5881 148.968 15.6601C148.632 15.6841 148.368 15.7081 148.176 15.7321L147.492 15.9841C146.844 16.2241 146.412 16.3921 146.196 16.4881L146.088 16.7041L146.196 16.9201L146.304 16.9561C146.64 17.0761 146.844 17.2081 146.916 17.3521V17.4961L146.772 17.6761C146.916 17.7721 147.036 17.8201 147.132 17.8201C147.252 17.8201 147.36 17.7721 147.456 17.6761C147.408 17.5321 147.336 17.4241 147.24 17.3521C147.24 17.1601 147.324 17.0641 147.492 17.0641L148.86 16.9561C149.652 16.8841 150.264 16.8481 150.696 16.8481C150.84 16.8481 151.044 16.8721 151.308 16.9201L151.416 16.9561L151.596 17.1001L151.668 17.3521C152.028 17.4961 152.472 17.5921 153 17.6401C153.528 17.6881 153.984 17.7841 154.368 17.9281L154.548 18.1081L154.62 18.2881C154.572 18.4561 154.476 18.5881 154.332 18.6841C153.252 18.8281 151.956 18.9361 150.444 19.0081C148.788 19.1041 147.384 19.2481 146.232 19.4401C146.04 19.5601 145.788 19.6801 145.476 19.8001C145.02 19.8001 144.792 19.4641 144.792 18.7921C144.792 18.5761 144.888 18.2881 145.08 17.9281L145.116 17.8201C145.26 17.7481 145.368 17.6161 145.44 17.4241C145.536 17.2081 145.632 17.0521 145.728 16.9561L145.476 16.8481C145.308 16.8481 145.08 16.7761 144.792 16.6321L144.432 16.7761L144 17.2081L143.712 17.3161L143.352 17.2081C143.232 17.0881 143.124 16.9321 143.028 16.7401C142.932 16.5241 142.812 16.3681 142.668 16.2721L142.56 15.9481L142.668 15.5881C142.836 15.4201 143.028 15.3121 143.244 15.2641C143.484 15.1921 143.784 15.1441 144.144 15.1201C144.576 15.0721 144.888 15.0121 145.08 14.9401C145.296 14.8681 145.512 14.8321 145.728 14.8321C146.16 14.6881 146.448 14.5561 146.592 14.4361L146.628 14.3281C146.748 13.9921 146.88 13.7881 147.024 13.7161C147.648 13.5001 148.236 13.1641 148.788 12.7081L149.004 12.6361L149.472 12.8161ZM194.868 3.45608C194.868 3.60008 194.7 3.70808 194.364 3.78008C194.052 3.85208 193.788 3.88808 193.572 3.88808C193.476 3.88808 193.224 3.80408 192.816 3.63608C191.496 3.99608 190.344 4.26008 189.36 4.42808C188.4 4.59608 187.344 4.68008 186.192 4.68008C185.856 4.68008 185.688 5.59208 185.688 7.41608C185.688 7.89608 185.7 8.22008 185.724 8.38808C185.748 8.55608 185.82 8.74808 185.94 8.96408L185.976 9.03608C186.312 9.03608 186.612 9.10808 186.876 9.25208H188.496C189.576 9.25208 190.728 9.04808 191.952 8.64008C192.336 8.49608 192.552 8.42408 192.6 8.42408C193.56 8.42408 194.268 8.83208 194.724 9.64808V9.86408C194.196 10.6561 193.932 11.3761 193.932 12.0241L193.968 13.4641C193.968 13.7281 193.92 14.0641 193.824 14.4721C193.728 14.8801 193.68 15.2161 193.68 15.4801C193.68 15.6241 193.704 15.8041 193.752 16.0201C193.8 16.2361 193.824 16.4041 193.824 16.5241C193.824 16.5721 193.812 16.6321 193.788 16.7041C193.692 16.9201 193.644 17.1721 193.644 17.4601C193.644 17.5801 193.668 17.6641 193.716 17.7121C193.908 18.1921 194.004 18.4801 194.004 18.5761C194.004 18.9601 193.824 19.3201 193.464 19.6561C193.104 19.9921 192.732 20.1601 192.348 20.1601C192.036 20.1601 191.82 20.0401 191.7 19.8001C191.58 19.5601 191.496 19.2361 191.448 18.8281L191.412 18.5761C191.292 18.5521 191.1 18.4321 190.836 18.2161L190.512 18.0001L188.712 17.9641C186.912 17.9641 185.844 18.1681 185.508 18.5761C185.484 18.6001 185.364 18.9481 185.148 19.6201C183.492 24.8281 181.992 28.1401 180.648 29.5561C180.456 29.7721 180.024 30.0121 179.352 30.2761H179.136L179.064 30.0961L179.028 29.3041C179.028 29.2081 179.172 28.9681 179.46 28.5841C180.012 27.8161 180.504 27.0001 180.936 26.1361C181.392 25.2481 181.776 24.1441 182.088 22.8241C182.856 19.6081 183.24 17.8081 183.24 17.4241C183.24 17.3521 183.228 17.2441 183.204 17.1001C183.18 16.9561 183.168 16.8481 183.168 16.7761C183.168 16.4641 183.216 16.0201 183.312 15.4441C183.408 14.7481 183.456 14.1721 183.456 13.7161C183.456 13.6921 183.432 13.6201 183.384 13.5001C183.336 13.3561 183.312 13.2601 183.312 13.2121C183.312 13.1161 183.324 12.9841 183.348 12.8161C183.372 12.6241 183.384 12.4801 183.384 12.3841L183.348 12.1681C183.228 12.0481 183.168 11.9281 183.168 11.8081L183.204 11.4841C183.324 10.8121 183.384 10.2001 183.384 9.64808C183.384 9.43208 183.36 9.14408 183.312 8.78408C183.288 8.42408 183.276 8.14808 183.276 7.95608C183.276 7.83608 183.3 7.70408 183.348 7.56008C183.3 7.05608 183.276 5.88008 183.276 4.03208C183.036 3.74408 182.916 3.42008 182.916 3.06008C182.916 2.96408 182.928 2.86808 182.952 2.77208L182.88 2.48408L182.772 2.44808L182.736 2.26808C182.736 2.10008 182.808 1.98008 182.952 1.90808H183.204C183.516 2.05208 183.924 2.16008 184.428 2.23208C184.788 2.30408 185.052 2.37608 185.22 2.44808C185.412 2.52008 185.568 2.66408 185.688 2.88008L185.724 2.98808C185.916 3.32408 186.108 3.56408 186.3 3.70808C186.78 3.70808 187.32 3.54008 187.92 3.20408C188.52 2.84408 189.24 2.35208 190.08 1.72808C190.848 1.17608 191.364 0.840076 191.628 0.720076C191.724 0.672077 191.904 0.636077 192.168 0.612078C192.456 0.564077 192.672 0.540076 192.816 0.540076C193.056 0.540076 193.308 0.744077 193.572 1.15208C193.86 1.56008 194.172 2.08808 194.508 2.73608C194.676 3.12008 194.796 3.36008 194.868 3.45608ZM205.416 1.62008C205.68 1.38008 205.908 1.21208 206.1 1.11608C206.292 0.996078 206.532 0.936078 206.82 0.936078C207.324 0.936078 207.804 1.11608 208.26 1.47608C208.716 1.83608 209.22 2.32808 209.772 2.95208C209.844 3.04808 209.892 3.13208 209.916 3.20408C209.964 3.25208 209.988 3.36008 209.988 3.52808C209.988 3.81608 209.316 4.10408 207.972 4.39208C206.628 4.65608 205.716 4.78808 205.236 4.78808C205.14 4.78808 205.008 4.77608 204.84 4.75208C204.696 4.72808 204.576 4.71608 204.48 4.71608C204 4.71608 203.208 4.80008 202.104 4.96808C201.024 5.11208 200.208 5.36408 199.656 5.72408L199.62 6.51608C199.62 6.61208 199.632 6.73208 199.656 6.87608C199.704 7.02008 199.728 7.14008 199.728 7.23608C199.728 7.33208 199.68 7.47608 199.584 7.66808C199.728 8.58008 199.8 9.43208 199.8 10.2241C199.8 10.3441 199.86 10.5361 199.98 10.8001C200.1 11.0401 200.208 11.1841 200.304 11.2321C200.76 11.3521 201.24 11.4121 201.744 11.4121C201.936 11.4121 202.212 11.4001 202.572 11.3761C203.196 11.3521 203.688 11.3401 204.048 11.3401C204.144 11.3401 204.288 11.3641 204.48 11.4121C204.672 11.4601 204.84 11.4841 204.984 11.4841C205.08 11.4841 205.2 11.4601 205.344 11.4121C205.512 11.3401 205.644 11.3041 205.74 11.3041C205.908 11.3041 206.136 11.3281 206.424 11.3761C206.736 11.4001 206.976 11.4121 207.144 11.4121C207.456 11.4121 207.684 11.3161 207.828 11.1241C207.996 10.9321 208.152 10.6561 208.296 10.2961C208.632 9.55208 209.028 9.18008 209.484 9.18008C209.724 9.18008 210.192 9.44408 210.888 9.97208C211.608 10.5001 211.968 10.8961 211.968 11.1601C211.968 11.4241 211.884 11.8201 211.716 12.3481C211.572 12.8521 211.392 13.1041 211.176 13.1041C210.456 13.1041 209.724 13.0201 208.98 12.8521C208.476 12.7321 208.056 12.6721 207.72 12.6721C206.952 12.6721 206.376 12.8401 205.992 13.1761C205.824 13.3201 205.704 13.6201 205.632 14.0761C205.584 14.5081 205.548 15.0841 205.524 15.8041L205.596 17.7121C205.596 18.0481 205.548 18.4441 205.452 18.9001C205.38 19.3321 205.344 19.7161 205.344 20.0521C205.344 20.2681 205.356 20.5801 205.38 20.9881C205.428 21.3721 205.452 21.6721 205.452 21.8881C205.452 22.0081 205.416 22.1761 205.344 22.3921L205.416 22.9321C205.464 23.3641 205.488 23.7001 205.488 23.9401C205.488 24.0361 205.476 24.1801 205.452 24.3721C205.428 24.5641 205.416 24.7081 205.416 24.8041C205.416 24.9721 205.452 25.1881 205.524 25.4521C205.668 26.0041 205.74 26.7241 205.74 27.6121C205.74 27.8521 205.776 28.1761 205.848 28.5841C205.92 29.1601 205.956 29.6401 205.956 30.0241C205.86 30.2161 205.464 30.5401 204.768 30.9961C204.072 31.4521 203.64 31.6801 203.472 31.6801C203.04 31.6801 202.74 31.6081 202.572 31.4641C202.428 31.3441 202.356 31.1041 202.356 30.7441C202.356 30.3841 202.416 29.9761 202.536 29.5201C202.656 29.0641 202.716 28.7041 202.716 28.4401L202.68 28.2241V28.0441L202.644 27.9721C202.5 27.6841 202.428 27.5161 202.428 27.4681C202.428 27.2281 202.5 26.9281 202.644 26.5681C202.812 26.2081 202.896 25.8961 202.896 25.6321L202.86 24.4441C202.86 24.3241 202.92 24.1441 203.04 23.9041L203.148 23.8321C203.148 23.4961 203.124 23.1721 203.076 22.8601C203.052 22.6681 203.04 22.5241 203.04 22.4281C203.04 22.2841 203.064 22.0681 203.112 21.7801C203.16 21.4921 203.22 21.3481 203.292 21.3481C203.268 21.0601 203.184 20.6281 203.04 20.0521C202.896 19.3321 202.824 18.8281 202.824 18.5401C202.824 18.4441 202.872 18.3601 202.968 18.2881L203.076 18.1441L203.148 17.7841C203.1 17.5441 203.076 17.3521 203.076 17.2081C203.076 17.1121 203.088 16.9801 203.112 16.8121C203.136 16.6201 203.148 16.4761 203.148 16.3801C203.148 16.2361 203.1 16.0321 203.004 15.7681C202.932 15.5041 202.896 15.3001 202.896 15.1561L202.932 14.1481C202.932 13.8841 202.86 13.5481 202.716 13.1401C202.596 12.7321 202.44 12.4561 202.248 12.3121C200.76 12.3121 199.896 12.4321 199.656 12.6721C199.584 12.6961 199.416 13.4641 199.152 14.9761C198.912 16.4881 198.696 17.7001 198.504 18.6121C198.312 19.5001 198.108 20.0041 197.892 20.1241L197.928 20.3041C197.736 21.3601 197.436 22.1881 197.028 22.7881C196.644 23.3641 196.08 24.0241 195.336 24.7681C194.856 25.2241 194.496 25.5841 194.256 25.8481C194.208 25.8961 193.98 26.0641 193.572 26.3521C192.156 27.2881 191.412 27.7921 191.34 27.8641C190.62 28.4401 189.756 28.8961 188.748 29.2321C188.58 29.3041 188.184 29.4001 187.56 29.5201C186.96 29.6641 186.54 29.7361 186.3 29.7361C186.012 29.7361 185.856 29.5681 185.832 29.2321C185.832 29.1121 185.988 28.9921 186.3 28.8721C186.756 28.6801 188.184 27.9601 190.584 26.7121C191.136 26.4241 191.556 26.1481 191.844 25.8841C192.156 25.6201 192.456 25.3201 192.744 24.9841C193.08 24.6001 193.356 24.3121 193.572 24.1201C194.1 23.6881 194.7 22.7161 195.372 21.2041C196.068 19.6681 196.416 18.6721 196.416 18.2161C196.368 18.1201 196.344 18.0481 196.344 18.0001C196.464 17.8801 196.608 17.4961 196.776 16.8481C196.968 16.1761 197.112 15.0121 197.208 13.3561C197.28 12.4921 197.364 11.7361 197.46 11.0881C197.508 10.7521 197.532 10.4641 197.532 10.2241C197.532 9.96008 197.496 9.64808 197.424 9.28808C197.376 8.90408 197.352 8.58008 197.352 8.31608C197.352 8.17208 197.388 7.98008 197.46 7.74008C197.532 7.50008 197.568 7.30808 197.568 7.16408C197.568 6.75608 197.46 6.26408 197.244 5.68808C197.028 5.11208 196.92 4.60808 196.92 4.17608C196.92 3.84008 196.992 3.51608 197.136 3.20408L197.28 3.09608C197.424 2.97608 197.544 2.91608 197.64 2.91608C197.736 2.91608 197.928 3.01208 198.216 3.20408C198.984 3.75608 199.704 4.03208 200.376 4.03208C200.928 4.03208 201.36 3.97208 201.672 3.85208C202.008 3.70808 202.392 3.49208 202.824 3.20408C203.376 2.84408 203.856 2.58008 204.264 2.41208C204.6 2.29208 204.984 2.02808 205.416 1.62008ZM186.912 9.97208C186.864 9.97208 186.768 10.0081 186.624 10.0801C186.504 10.1281 186.396 10.1641 186.3 10.1881C186.228 10.1881 186.108 10.2001 185.94 10.2241C185.796 10.2481 185.724 10.3561 185.724 10.5481C185.724 11.1001 185.736 11.8921 185.76 12.9241C185.784 13.9561 185.796 14.7361 185.796 15.2641C185.796 15.9601 185.868 16.4281 186.012 16.6681C186.18 16.9081 186.564 17.0281 187.164 17.0281C187.332 17.0281 187.452 16.9801 187.524 16.8841C187.932 16.9561 188.472 16.9921 189.144 16.9921C189.888 16.9921 190.44 16.9441 190.8 16.8481C190.872 16.8481 191.016 16.7281 191.232 16.4881C191.448 16.2481 191.556 16.0801 191.556 15.9841C191.532 15.9361 191.52 15.8641 191.52 15.7681C191.52 15.3361 191.604 15.0721 191.772 14.9761L191.736 14.0041C191.664 12.9961 191.616 12.2401 191.592 11.7361L191.628 11.3761C191.484 10.7281 191.22 10.3441 190.836 10.2241C190.476 10.0801 189.66 10.0081 188.388 10.0081C188.076 10.0081 187.8 10.0201 187.56 10.0441H187.452L186.912 9.97208Z" fill="#4371A0"/>
</svg>
