<svg width="213.011795" height="34.558594" viewBox="0 0 213.012 34.5586" fill="none" xmlns="http://www.w3.org/2000/svg" xmlns:xlink="http://www.w3.org/1999/xlink">
	<desc>
			Created with Pixso.
	</desc>
	<path d="M212.186 11.6279Q211.896 11.1533 211.755 10.7227L210.208 10.9775Q206.675 11.584 205.919 11.6279Q203.941 12.0938 202.913 12.2783Q201.894 12.4541 200.663 12.4541Q200.663 12.1289 200.742 11.4785Q200.848 10.6523 200.848 9.86133Q200.848 8.16504 200.057 7.55859Q200.162 7.37402 201.147 7.16309Q202.14 6.94336 204.232 6.58301Q206.965 6.11719 208.371 5.80957Q209.777 5.50195 209.883 5.10645Q210.278 4.64062 210.278 4.0957Q210.278 2.33789 206.068 0Q205.603 0.0351562 205.4 0.175781Q205.207 0.316406 205.207 0.571289L205.207 0.896484Q205.207 1.3623 204.987 1.72266Q202.825 4.02539 200.54 5.00098Q198.255 5.96777 194.581 6.5127Q195.047 6.9082 195.478 7.19824Q195.917 7.48828 196.163 7.69922Q196.488 8.2793 196.559 9.07031Q196.638 9.86133 196.638 11.7334Q196.638 14.1768 196.708 15.9082Q196.708 18.2109 196.128 22.2451Q195.557 26.2793 194.564 29.7861Q193.579 33.293 192.349 34.374Q194.687 33.1875 196.023 31.8867Q197.358 30.5947 198.22 28.7051Q199.081 26.8154 200.057 23.4316L200.742 17.4551L200.953 15.5127Q201.568 15.293 203.291 15.082L204.697 14.8623Q204.627 17.165 204.627 21.665Q204.627 24.9082 204.557 26.7451Q204.592 27 204.574 27.3779Q204.557 27.7559 204.557 28.1162Q204.522 28.7578 204.522 30.1992Q204.522 31.7461 204.592 32.2119Q204.697 32.5723 204.97 32.8623Q205.242 33.1523 205.524 33.4072Q206.068 33.873 206.279 34.1982Q206.675 34.0137 207.466 33.2051Q208.266 32.3965 209.057 31.0957Q209.162 30.4541 209.162 29.7334Q209.162 28.6172 208.802 26.5957L208.591 25.1982Q208.626 24.2578 208.679 21.5596Q208.732 18.8613 208.732 16.084Q208.732 14.3613 208.696 14.291Q208.837 14.2559 209.197 14.2559Q209.707 14.2559 211.395 14.502Q212.687 14.7568 212.941 14.6514Q213.012 13.6406 212.81 12.9727Q212.616 12.3047 212.186 11.6279ZM62.6397 2.87402Q63.3252 3.48926 63.4307 3.62988Q63.9756 3.48926 64.336 2.80371Q64.6963 2.11816 64.6963 1.51172Q64.6963 1.29199 64.626 1.07227Q63.5449 0.536133 62.71 0.395508Q61.8838 0.246094 60.4072 0.210938Q60.4424 0.500977 60.8379 0.984375Q61.2422 1.46777 61.8662 2.10059L62.6397 2.87402ZM14.6162 16.3652Q15.5918 15.4072 15.9873 14.7217Q15.5918 14.6865 14.6338 14.959Q13.6846 15.2227 12.5332 15.583L11.3818 15.9434Q10.8721 14.5371 10.2217 13.8604Q9.58008 13.1748 8.31445 12.4893L9.21973 11.584Q11.5928 9.21094 13.3945 7.26855Q15.1963 5.32617 15.9521 3.99023Q15.917 3.05859 15.3896 2.4082Q14.8711 1.75781 13.9307 1.00195L13.2891 0.430664Q12.8145 0.536133 12.2432 1.03711Q11.8125 1.39746 11.3818 1.54688L10.3711 1.75781Q6.9873 2.47852 5.5459 2.75098Q4.10449 3.02344 3.24316 3.02344Q2.59277 3.02344 2.16211 2.88281Q1.73145 2.7334 1.33594 2.4082Q1.33594 3.52441 1.81934 4.51758Q2.30273 5.50195 3.02344 6.11719Q3.74414 6.73242 3.8584 6.83789Q4.61426 6.80273 5.40527 6.29297Q5.51074 6.22266 5.75684 6.08203Q6.01172 5.93262 6.2666 5.89746Q7.05762 5.72168 7.76074 5.63379Q8.46387 5.53711 9.21973 5.50195Q9.03516 6.9082 8.20898 8.65723Q7.38281 10.3975 6.40723 11.8037L4.28906 11.874Q4.10449 12.1992 4.37695 12.4189Q4.64941 12.6299 5.25586 12.9199Q5.37012 12.9551 5.76562 13.1572Q6.16113 13.3506 6.2666 13.6055Q7.41797 15.0117 8.0332 16.9893Q7.41797 17.1299 6.96973 17.2969Q6.52148 17.4551 6.33691 17.5254Q3.81445 18.791 2.23242 18.791Q0.94043 18.791 0.219727 17.9561L0 18.1055Q0.149414 20.1182 0.685547 22.2803Q1.23047 24.4424 2.02148 24.4424Q2.19727 24.4424 2.34668 24.3281Q2.59277 24.3281 3.50684 23.7744Q4.42969 23.2119 5.61621 22.4561Q6.09082 22.1748 6.80273 21.709Q7.52344 21.2344 8.53418 20.6279Q8.56934 21.9902 8.42871 24.5127L8.31445 26.4551Q8.13867 26.6748 7.77832 27.4658Q7.67285 27.6416 7.41797 28.1162Q7.16309 28.582 6.95215 28.7227Q6.66211 28.9072 5.90625 28.9951Q5.15039 29.083 4.39453 29.1182Q3.10254 29.1885 2.52246 29.3379Q4.13965 30.6299 6.92578 32.5547Q9.43188 34.2885 9.493 34.2062Q9.50004 34.1967 9.47461 34.1631Q10.2656 33.9785 10.6084 33.5303Q10.9512 33.082 11.3027 32.0713Q11.707 30.9551 12.0586 30.2695Q12.4629 29.373 12.5332 28.3975Q12.6035 27.4307 12.6035 27.2461Q12.6035 26.7451 12.6738 26.3145Q12.6035 23.1416 12.5068 21.4893Q12.4189 19.8281 12.1377 18.3164Q13.6494 17.3145 14.6162 16.3652ZM140.405 13.4824Q140.045 12.9199 139.86 12.6299Q139.72 12.5947 139.324 12.5947Q138.384 12.5947 137.487 12.7969Q136.591 12.9902 136.547 12.9902Q136.547 12.4893 136.626 10.9775Q136.661 10.3623 136.696 9.34277Q136.731 8.31445 136.731 6.94336Q136.731 5.25586 136.591 4.35059Q137.356 4.16309 137.358 4.17003L137.347 4.1748Q138.384 3.95508 138.674 3.95508Q138.858 3.95508 138.981 4.02539Q139.105 4.0957 139.254 4.24512Q139.755 4.24512 139.948 4.13965Q140.15 4.02539 140.476 3.74414Q140.335 2.98828 139.957 2.55762Q139.579 2.11816 138.814 1.58203Q137.953 1.00195 137.487 0.46582Q136.986 0.500977 136.644 0.588867Q136.301 0.676758 135.993 0.84375Q135.686 1.00195 135.475 1.11621Q135.49 1.11621 135.49 1.1178Q135.492 1.13862 132.952 1.43262Q130.324 1.82812 128.47 2.06543Q126.615 2.30273 125.174 2.30273Q123.407 2.30273 123.012 1.87207Q122.906 2.26758 123.302 3.54199Q123.697 4.81641 123.952 5.10645Q124.128 5.29102 124.541 5.32617Q124.963 5.36133 125.394 5.36133Q125.859 5.36133 126.149 5.43164Q126.29 5.8623 126.378 8.1123Q126.475 10.3623 126.475 12.4893Q126.475 14.502 126.36 15.0117Q125.174 15.293 124.541 15.3545Q123.917 15.4072 122.906 15.3721Q122.731 15.6533 123.029 16.3564Q123.337 17.0596 124.023 18.2812Q125.314 18.1406 125.824 18.0703Q125.754 23.3965 124.523 27.1406Q123.302 30.8848 120.814 33.8379Q122.871 33.293 124.708 31.2539Q126.545 29.2236 127.696 26.8154Q128.848 24.4072 128.953 22.9307L129.208 21.1641Q129.384 19.7578 129.814 16.9541Q130.069 16.7344 130.755 16.6113Q131.44 16.4883 132.126 16.4092L132.952 16.3037Q132.882 21.9199 132.627 26.2441Q132.372 30.5596 131.977 30.8145Q132.012 31.0605 132.908 32.6074Q133.814 34.1631 134.068 34.4443L134.64 33.7676Q135.94 32.3262 136.187 31.7109Q136.371 31.3154 136.371 30.5244Q136.371 29.8037 136.266 28.9775Q136.187 28.0371 136.187 27.6768Q136.187 25.1279 136.345 22.1396Q136.512 19.1514 136.767 18.5713L136.767 15.6533Q137.487 15.5127 138.103 15.5127Q138.639 15.5127 139.43 15.6885Q140.836 15.9082 141.231 15.9434Q141.126 15.082 140.941 14.5635Q140.766 14.0361 140.405 13.4824ZM145.081 11.1182Q145.661 12.1641 146.417 12.665Q147.419 12.4893 147.938 11.6104Q148.465 10.7227 148.931 9.28125Q148.975 9.14062 149.15 8.63965Q149.335 8.12988 149.511 7.98926Q149.977 8.05957 160.242 7.69922Q169.313 7.33887 171.114 7.33887Q171.431 7.33887 171.589 7.35645Q171.756 7.37402 171.791 7.37402Q172.151 7.55859 172.151 8.70996L172.116 10.1865Q172.942 10.002 173.786 9.4834Q174.639 8.95605 175.825 8.09473L176.941 7.30371Q176.977 6.68848 176.792 6.29297Q176.616 5.89746 176.221 5.55469Q175.825 5.21191 175.614 4.96582Q175.175 4.4209 174.832 4.20996Q174.498 3.99023 173.777 3.74414Q173.197 3.95508 172.441 4.12207Q171.686 4.28027 171.36 4.35059Q170.859 4.35059 167.115 4.57031Q162.431 4.93066 162 4.81641L162.431 3.81445Q162.94 2.80371 162.94 2.37305Q162.94 1.87207 162.22 1.54688Q161.174 0.966797 160.075 0.791016Q158.977 0.606445 156.964 0.606445Q156.815 1.00195 157.052 1.41504Q157.289 1.82812 157.896 2.62793Q158.476 3.30469 158.783 3.81445Q159.091 4.31543 159.091 4.78125Q159.091 5.00098 159.047 5.10645Q157.395 5.03613 154.767 5.21191Q152.754 5.36133 151.884 5.36133Q149.871 5.36133 149.01 4.86035Q148.685 4.67578 148.5 4.33301Q148.324 3.99023 148.21 3.54199Q148.105 3.09375 148.034 2.83887Q147.533 2.94434 147.331 3.2168Q147.138 3.48926 146.988 4.02539Q146.883 4.45605 146.742 4.71094Q145.907 6.04688 145.424 6.67969Q144.94 7.30371 143.965 8.2793Q144.51 10.0723 145.081 11.1182ZM43.919 28.7227Q43.8486 27.791 43.8486 27.1406L43.8486 12.3398Q44.0684 12.3047 44.8594 12.3047L47.8477 12.3398Q47.9531 11.8037 47.7158 11.0479Q47.4873 10.292 47.1094 9.7207Q46.7315 9.14062 46.5117 9.17578Q46.1514 9.21094 45.4307 9.3252Q44.7188 9.43066 44.1738 9.43066Q43.9629 8.45508 43.9629 6.83789Q43.9629 5.4668 44.1563 4.38574Q44.3584 3.30469 44.7891 2.87402Q44.7891 1.79297 43.5235 1.23926Q42.2666 0.676758 40.6846 0.676758Q40.0342 0.676758 39.2432 0.826172L40.2891 4.20996Q40.3242 4.74609 40.5 6.94336Q40.7197 8.74512 40.6846 9.75586Q40.1397 10.002 38.5049 10.1338Q36.8701 10.2568 35.3584 10.292Q35.3584 10.6523 35.5166 10.9424Q35.6748 11.2236 36.0352 11.6982Q36.791 12.5947 37.1514 13.3506Q37.4414 13.3154 37.8897 13.2275Q38.3467 13.1396 38.6279 13.0957L40.3945 12.7441L40.2188 25.7344Q39.999 27 39.8584 28.582Q39.8145 29.3027 39.6387 30.7441Q39.7442 31.2803 40.9658 32.4844Q42.1963 33.6885 42.7324 33.873Q43.4531 32.6514 43.7256 31.7461Q43.9981 30.8496 43.9981 29.9443Q43.9981 29.584 43.919 28.7227ZM98.7276 10.6875Q98.0684 10.9072 97.4883 11.0127Q94.9746 11.2236 92.8125 11.2236Q90.835 11.2236 90.3955 11.083Q90.4746 9.21094 90.545 8.22656Q90.6153 7.2334 90.8701 6.08203Q90.9405 5.72168 90.9405 5.07129Q90.9756 4.4209 91.0635 4.04297Q91.1514 3.66504 91.4414 3.41895Q91.4063 2.76855 90.2373 2.14453Q89.0684 1.51172 87.4073 1.09863Q85.7549 0.676758 84.419 0.676758Q83.2325 0.676758 82.7315 1.03711Q82.8369 1.75781 83.7422 2.58398Q84.5332 3.38379 84.7442 3.91992Q85.2188 5.43164 85.2188 9.36035Q85.2188 10.6523 85.1397 12.1641Q83.4873 12.1289 79.8838 12.5596Q76.6494 12.9199 75.2432 12.9199Q73.2305 12.9199 72.0352 12.3838Q72.1143 12.5947 72.4307 13.9307Q72.6504 14.9326 72.8262 15.3721Q73.0108 15.8027 73.3711 16.1455Q73.7315 16.4883 74.5225 16.8838L74.8477 16.9541Q74.9532 16.9541 75.3662 16.8486Q75.7793 16.7344 77.045 16.5586Q80.3584 15.8027 82.1866 15.8027Q83.7071 15.8027 85.0342 16.2334Q84.9991 18.1055 84.9991 21.0586L85.0342 26.3145Q85.0694 27 85.0694 27.9668Q85.0694 28.5469 85.0342 28.96Q84.9991 29.373 84.8584 29.584Q84.0235 29.4785 81.545 29.8037Q78.7325 30.1641 77.0801 30.1641Q74.7422 30.1641 73.8018 29.4785Q73.5469 29.5137 73.4063 29.5488Q73.2657 29.584 73.1162 29.6982Q73.1866 30.5947 74.1797 32.0889Q75.1729 33.583 75.9991 34.3389Q76.5352 34.0488 79.6641 33.5654Q82.8018 33.082 86.5635 32.7041Q90.3252 32.3262 92.8125 32.3262Q94.9307 32.3262 95.5459 32.6162Q96.0117 32.4668 96.6621 32.4668Q97.919 32.4668 99.9053 33.1523Q100.116 33.2227 100.617 33.3633Q101.127 33.5127 101.417 33.5127Q101.663 33.5127 101.777 33.4072Q102.103 33.293 102.103 32.8975Q102.103 32.2119 101.417 31.0781Q100.731 29.9443 99.5801 28.292Q98.4991 28.3623 96.5567 28.582Q93.8936 28.8721 92.8125 28.8721Q91.626 28.8721 90.3955 28.582Q90.2549 28.3623 90.1846 26.0596Q90.1143 23.7568 90.1143 21.0234Q90.1143 16.1279 90.2901 15.7676Q90.5098 15.293 91.7491 15.1348Q92.9883 14.9678 95.1504 14.9678Q96.3369 14.9678 99 15.0469Q101.663 15.1172 102.999 15.1172Q104.977 15.0117 105.267 14.8271Q105.231 13.7461 104.757 12.8145Q104.291 11.874 103.465 10.6172Q103.395 10.5469 102.999 9.93164Q102.568 9.82617 102.103 9.82617Q101.558 9.82617 100.907 10.0107Q100.266 10.1865 99.6153 10.3975Q99.3955 10.4678 98.7276 10.6875ZM51.8027 7.02246Q52.7783 6.9082 54.2197 6.9082Q54.6856 6.94336 54.8262 7.05762Q54.9756 7.16309 54.9756 7.48828L54.9053 8.74512Q54.3955 9.03516 53.3145 9.03516Q53.1387 9.03516 52.5938 9.07031Q52.0576 9.10547 51.5215 9.21094Q50.9414 9.14062 50.458 9Q49.9746 8.85059 49.7901 8.81543Q49.2539 8.5957 48.9287 8.5957Q48.5684 8.5957 48.3486 8.78027L48.3838 9.60645Q48.6738 13.7812 48.6738 15.4775Q48.6738 17.3496 48.419 17.7451Q48.419 19.002 48.5069 19.5645Q48.6035 20.1182 48.8145 20.3555Q49.0342 20.584 49.5791 20.8037Q50.2559 21.0938 50.836 21.4893Q51.4512 21.4893 51.8291 20.6982Q52.207 19.9072 52.1631 18.2109Q52.3828 18.1758 52.8486 18.1758L53.7188 18.1758Q54.2901 18.1758 54.5801 18.1406Q54.5449 18.4307 54.5449 18.8965Q54.5449 19.5469 54.7207 19.8545Q54.9053 20.1533 55.3008 20.5137Q55.6963 20.874 55.96 21.1816Q56.2324 21.4893 56.5225 21.9902Q57.1026 21.8145 57.6738 21.2256Q58.2539 20.6279 58.2891 20.083Q58.3594 19.582 58.4297 19.3271Q58.6143 18.2812 58.5791 17.8506Q58.7197 17.5957 59.0977 17.5254Q59.4756 17.4551 60.1963 17.4199Q60.3369 17.4199 61.0576 17.3496Q61.7783 17.2793 62.3584 17.0244Q62.209 17.6396 61.9014 17.9297Q61.6026 18.2109 60.6621 18.8262Q62.8945 19.7227 64.3711 20.083Q65.707 20.0479 66.2432 17.9297Q66.7793 15.8027 66.7793 12.7441Q66.7793 10.9072 66.6387 9.17578Q66.2432 8.81543 65.5928 8.38477Q64.9863 8.02441 64.5117 7.55859Q63.7207 7.62891 63.3076 7.76074Q62.8945 7.88379 62.4815 8.12109Q62.0684 8.34961 61.8135 8.41992L58.8252 8.52539L58.7197 6.68848L67.9746 6.22266Q68.2559 6.32812 68.4053 6.32812Q68.6865 6.32812 68.6865 5.93262Q68.6865 5.61621 68.4492 5.16797Q68.2207 4.71094 67.9307 4.53516L66.9287 3.02344Q66.5332 3.30469 65.7949 3.43652Q65.0567 3.55957 63.6504 3.74414Q63.3604 3.7793 63.0176 3.81445Q62.6748 3.84961 62.3145 3.91992Q61.4883 4.0957 60.4248 4.24512Q59.3701 4.38574 58.7197 4.4209Q58.7197 4.24512 58.8604 3.66504Q59.0449 2.76855 59.0449 2.54883Q59.0449 2.15332 58.8955 1.90723Q58.5352 1.25684 57.3486 1.09863Q56.1621 0.931641 54.2901 0.931641L53.499 0.931641Q53.5342 1.3623 53.6572 1.61719Q53.7891 1.87207 54.0352 2.15332Q54.4307 2.51367 54.5801 3.02344Q54.6152 3.19922 54.6856 3.43652Q54.7559 3.66504 54.8262 3.99023Q54.9053 4.31543 54.9053 4.86035Q54.3604 4.89551 52.7783 4.89551Q50.9063 4.89551 49.2276 4.80762Q47.5576 4.71094 46.9512 4.5Q46.8711 4.47186 46.8299 4.50022Q46.7039 4.58702 46.9424 5.20312Q47.2676 6.01172 47.8477 7.08398Q47.8828 7.30371 47.9883 7.37402Q48.1026 7.44434 48.3486 7.44434Q48.4629 7.44434 49.4649 7.30371Q50.836 7.12793 51.8027 7.02246ZM21.6738 1.11621Q20.0566 1.11621 19.626 1.75781Q19.9424 2.0127 20.3027 2.23242Q20.6631 2.44336 21.0059 2.68066Q21.3486 2.90918 21.4629 3.16406Q21.7793 3.74414 21.7793 4.64062L21.7441 5.93262Q21.7441 6.54785 21.8145 6.87305Q21.8584 6.97852 21.7793 7.66406Q21.498 11.8389 21.498 17.2793Q21.498 20.874 21.6035 26.5957L21.6387 28.2217Q21.2783 29.0127 18.9404 29.0127Q18.2549 29.0127 17.1738 28.9424L16.1631 28.9072Q16.3125 29.4434 18.835 31.4209L19.626 32.0713Q20.1621 32.5371 20.8828 33.2578Q21.6738 34.0488 22.1045 34.3037Q22.5352 34.5586 23.291 34.5586L23.9062 34.1279Q24.8027 33.4775 25.251 33.0469Q25.708 32.6162 25.8838 32.0713Q25.9629 31.8604 25.9629 31.3857Q25.9629 30.6299 25.6377 29.4082Q25.2773 27.9668 25.2773 27.2109Q25.2773 26.7803 25.3125 26.5605Q25.3828 18.5713 25.6377 13.8604Q25.7432 12.0586 25.7432 10.582L25.708 8.45508L25.6729 7.48828Q25.6025 6.68848 25.9365 4.9834Q26.2793 3.26953 26.6748 2.83887Q26.6045 2.18848 24.9434 1.65234Q23.291 1.11621 21.6738 1.11621ZM122.238 17.209Q122.37 16.1631 122.37 15.2578Q121.614 14.4316 120.604 13.5703L120.023 13.0605Q119.382 13.0957 118.942 13.2627Q118.512 13.4209 118.046 13.7109Q117.475 14.0713 117.114 14.2119L115.849 14.6514Q115.559 14.6514 114.803 14.792Q115.418 13.5 116.499 10.5469Q116.64 10.1162 116.877 9.46582Q117.114 8.81543 117.475 7.9541Q117.976 6.76758 117.976 6.08203Q117.976 5.57227 117.721 5.21191L117.721 5.17676L118.696 5.17676Q119.197 5.17676 119.988 5.19434Q120.779 5.21191 120.929 5.17676Q121.72 4.57031 121.72 3.81445Q121.72 3.09375 121.228 2.46094Q120.744 1.82812 120.023 1.11621Q119.057 1.22168 118.151 1.54688Q117.255 1.87207 115.919 2.44336Q115.559 2.58398 114.715 2.92676Q113.871 3.26953 113.186 3.4541Q112.535 3.52441 112.359 3.52441Q111.709 3.59473 111.568 3.59473Q111.138 3.59473 110.698 3.4541Q110.268 3.30469 109.187 2.83887Q109.231 4.0957 109.301 4.6582Q109.371 5.21191 109.635 5.66895Q109.907 6.11719 110.523 6.37207Q110.918 6.65332 111.533 6.65332Q112.069 6.65332 112.57 6.49512Q113.08 6.32812 113.731 6.04688Q113.941 7.66406 112.702 11.4609Q111.463 15.2578 109.784 18.8086Q108.114 22.3506 107.314 22.9307Q108.87 22.2803 109.942 21.4717Q111.023 20.6631 111.964 19.7227Q112.254 19.3975 112.465 19.2568Q112.62 19.1573 112.683 19.1987Q112.71 19.2158 112.72 19.2568Q112.931 20.083 112.931 21.3047Q112.931 22.3857 112.649 24.5479Q112.359 26.5605 112.359 27.4307Q112.359 29.083 113.01 30.0938Q113.221 30.7793 113.836 30.7793Q114.196 30.7793 114.627 30.5244Q114.662 30.3398 114.732 30.252Q114.803 30.1641 114.803 29.8037Q115.523 29.874 116.569 29.6631Q117.36 29.4785 117.721 29.5488Q117.94 29.7334 118.231 30.2344Q118.547 30.8145 118.802 30.9902Q118.907 31.0957 119.443 30.7705Q119.988 30.4541 120.138 30.2344Q120.814 29.1885 121.034 27.9316Q121.254 26.6748 121.359 24.4424Q121.359 24.1875 121.43 22.8252Q121.5 21.4541 121.79 20.2676Q121.825 19.9072 121.975 19.1865Q122.115 18.2461 122.238 17.209ZM193.79 22.3242Q193.975 22.1396 194.08 22.0605Q195.302 16.3037 195.232 13.3506Q193.14 11.2676 192.059 11.2676Q191.953 11.2676 191.742 11.3379Q191.232 11.5137 190.732 11.9443Q190.696 11.9883 190.389 12.2256Q190.081 12.4541 189.65 12.5947Q189.185 12.5947 188.754 12.8145Q188.244 13.0254 187.919 13.0254Q187.453 13.0254 186.627 12.7441Q186.522 12.3398 186.882 10.793Q187.093 9.6416 187.093 9.39551Q187.023 9.24609 186.768 9.1582Q186.522 9.07031 186.082 9.01758Q185.651 8.95605 185.546 8.95605Q185.405 8.95605 185.027 8.9209Q184.649 8.88574 184.465 8.81543L184.43 8.05957Q186.267 7.62891 188.569 7.40918Q190.591 7.16309 191.76 6.83789Q192.929 6.5127 194.441 5.43164Q194.441 3.7002 193.175 2.62793Q191.918 1.54688 189.976 1.29199Q189.756 1.54688 189.756 1.82812Q189.756 2.11816 190.081 2.51367Q190.116 3.19922 188.438 4.24512Q186.768 5.29102 183.533 6.61816Q183.349 6.68848 182.487 7.12793Q181.767 7.52344 181.204 7.72559Q180.65 7.91895 179.895 7.9541Q180.114 8.24414 180.633 8.55176Q181.151 8.85059 181.591 8.81543Q182.127 10.1514 182.417 12.3135Q182.707 14.4668 182.707 17.0596Q182.707 22.1396 181.644 26.9824Q180.58 31.8164 178.559 34.1982Q180.976 32.8975 182.417 31.5264Q183.858 30.1641 184.737 28.2041Q185.616 26.2441 186.091 23.1768Q186.126 22.8604 186.267 22.7197Q186.407 22.5703 186.486 22.3857Q188.139 21.9902 189.65 21.9902Q191.593 21.9902 192.709 22.7109Q193.14 22.6758 193.377 22.5879Q193.614 22.5 193.79 22.3242ZM135.255 2.83887Q134.789 2.83887 134.605 2.80371L135.079 2.69824L135.255 2.83887ZM130.532 3.47699Q130.47 3.48475 130.395 3.38379L130.579 3.38379L130.579 3.4541Q130.557 3.47393 130.532 3.47699ZM133.348 10.7227Q133.348 12.8496 132.952 13.6055Q132.627 13.8604 130.685 14.1768L129.858 14.3613L129.858 7.48828Q129.858 5.61621 129.779 5.00098Q130.175 4.93066 130.685 4.64062Q131.221 4.38574 131.669 4.29785Q132.126 4.20996 132.987 4.24512Q132.987 4.71094 133.128 6.44238Q133.348 9.10547 133.348 10.7227ZM135.018 5.00098Q134.859 5.21191 134.789 5.65137Q134.605 5.4668 134.569 5.1416Q134.534 4.81641 134.534 4.24512Q134.789 4.31543 134.947 4.46484Q135.114 4.60547 135.255 4.71094Q135.185 4.78125 135.018 5.00098ZM10.749 5.94141Q11.1973 5.25586 11.8828 4.53516Q12.1729 4.57031 12.2783 4.64062Q12.2432 5.00098 12.208 5.00098L12.1025 5.00098Q11.5928 5.00098 10.626 7.30371L10.2305 7.44434Q10.3743 7.37241 10.371 7.36486Q10.3679 7.35766 10.2305 7.40918Q10.3008 6.61816 10.749 5.94141ZM88.7432 7.33887Q88.7432 7.73438 88.6377 7.83984L88.6026 7.91895Q88.2071 7.76953 87.8819 6.76758Q87.5567 5.75684 87.6621 5.43164L88.5586 5.32617Q88.5235 5.50195 88.5762 5.8623Q88.6377 6.22266 88.6377 6.40723Q88.7432 6.87305 88.7432 7.33887ZM152.815 14.5986Q156.744 13.0605 157.465 11.2676Q157.034 10.3271 156.472 9.86133Q155.918 9.39551 154.986 8.9209Q154.547 8.70996 154.046 8.41992Q153.87 10.4678 144.475 17.0244Q148.896 16.1279 152.815 14.5986ZM168.152 9.79102Q163.837 9.03516 161.104 8.63965Q162.396 10.0723 164.804 11.6631Q167.221 13.2451 169.523 14.4492Q171.835 15.6533 172.512 15.8027Q172.767 15.5479 172.89 14.9062Q173.022 14.2559 173.022 13.4561Q173.022 12.5947 172.855 11.8213Q172.696 11.0479 172.371 10.6523Q172.373 10.6502 172.374 10.6479Q172.391 10.5318 168.152 9.79102ZM60.1963 12.0234Q59.4404 12.0234 58.7197 11.9443L58.8252 10.3623Q60.126 10.3623 61.5586 10.1865L62.5342 10.1162Q62.5694 10.6523 62.5694 11.9443Q60.9873 12.0234 60.1963 12.0234ZM54.9404 11.8652Q54.9053 12.0938 54.9053 12.4541L53.9297 12.5596Q51.8819 12.7441 51.7676 12.7793L51.8027 11.8037Q51.8027 11.4434 51.7676 11.3027Q52.1631 11.1533 53.2793 11.083Q54.3604 11.0127 54.835 10.9072Q54.9756 11.1885 54.9756 11.4434Q54.9756 11.6279 54.9404 11.8652ZM169.163 11.6279Q169.128 11.6982 169.058 11.7686Q168.987 11.9443 168.645 11.8389Q168.302 11.7334 168.126 11.5488Q167.977 11.3379 167.941 11.083Q168.126 11.083 168.267 11.1182Q168.407 11.1533 168.486 11.1533Q168.768 11.2236 168.891 11.3027Q169.023 11.373 169.207 11.4082Q169.207 11.5488 169.163 11.6279ZM16.3477 11.1885Q16.3125 11.1533 16.2422 11.1533L16.3477 11.1885ZM16.3477 11.1885Q16.6729 11.4082 16.6729 12.7793Q16.6729 13.7461 16.5234 14.8799Q16.3828 16.0137 16.207 16.4883Q15.9521 17.8506 15.4951 19.6875Q15.0469 21.5244 14.8711 22.2803Q13.8955 26.0244 13.8604 26.8857Q15.0908 26.0596 16.5586 23.5459Q18.0352 21.0234 19.0811 18.1406Q20.127 15.2578 20.127 13.5352Q20.127 13.0254 20.0215 12.665Q19.0107 12.0938 18.29 11.8213Q17.5693 11.5488 16.3477 11.1885ZM31.8428 17.877Q30.8145 16.4883 28.4062 13.3857L26.8945 11.4434Q29.3818 24.6182 30.4629 26.2793Q30.5684 26.165 31.3945 25.6641Q33.126 24.5479 33.3369 24.2578Q33.9521 23.1416 33.9521 22.2803Q33.9521 21.4189 33.4072 20.3379Q32.8711 19.2568 31.8428 17.877ZM64.2744 17.2617Q64.4414 16.9893 64.5117 16.7695Q64.6611 16.3389 64.6611 15.7676Q64.6611 15.3721 64.5908 14.6514Q64.5117 13.9307 64.5117 13.6055Q64.5117 13.1396 64.626 12.7793Q64.7315 12.8145 64.8018 12.8496Q64.8721 12.8848 64.9863 12.9199Q64.9424 13.2451 64.9072 13.8955Q64.8721 14.5371 64.8721 14.8975Q64.8369 16.2686 64.7666 17.0771Q64.6963 17.8857 64.5117 18.2109L64.5117 18.4658Q64.1162 18.3955 64.0459 18.3604Q63.9756 17.9561 64.0459 17.7451Q64.1162 17.5254 64.2744 17.2617ZM58.4824 14.792Q58.5 14.502 58.6143 14.291Q59.0449 14.0361 59.9766 13.9658Q60.917 13.8955 62.4639 13.8604L62.3936 15.3281Q62.1738 15.3281 61.7783 15.4072Q61.3828 15.4775 61.0928 15.5127Q59.335 15.873 58.4649 15.8027Q58.4649 15.082 58.4824 14.792ZM77.6514 14.6689Q77.5108 14.8271 77.4405 14.9678Q76.8604 14.8975 76.6582 14.8447Q76.4649 14.792 75.8936 14.3965L75.8936 14.001L77.5459 14.2559Q77.5459 14.3262 77.6514 14.3262Q77.7931 14.3262 77.8157 14.378Q77.8225 14.3937 77.8184 14.4141Q77.8008 14.502 77.6514 14.6689ZM177.442 31.3154Q177.442 30.9211 177.303 30.5966Q177.301 30.5979 176.115 28.3975Q174.894 26.1299 174.419 24.9434Q174.402 24.9111 174.38 24.9079Q174.182 24.8785 173.628 27.2461Q173.268 28.7227 173.197 28.8721Q171.325 30.7793 169.708 30.7793Q168.803 30.7793 168.117 30.2695Q167.44 29.7686 166.975 29.0127Q166.975 26.7803 167.098 25.1807Q167.221 23.5723 167.906 20.3379Q168.012 20.083 168.319 19.7402Q168.627 19.3975 168.768 19.2217Q169.418 18.5713 169.559 18.2109Q169.673 17.9209 169.471 17.5869Q169.277 17.2441 168.952 16.9541Q168.627 16.6641 168.557 16.5938Q167.871 15.9434 167.511 15.7148Q167.15 15.4775 166.755 15.4775Q166.465 15.4775 165.463 15.7236Q164.584 15.9618 164.588 15.9774L164.593 15.9785L160.163 16.7695Q160.242 16.5234 160.436 16.2861Q160.638 16.0488 160.708 15.9785Q161.139 15.5479 161.139 15.293Q161.139 15.082 160.884 14.792Q160.743 14.4668 159.82 14.2734Q158.906 14.0713 157.79 14.0713Q156.964 14.0713 156.331 14.1855Q155.707 14.291 155.523 14.502L155.127 14.792Q155.558 15.1875 155.558 15.8027Q155.558 16.374 155.127 17.3848Q154.837 18.0352 154.802 18.2812Q152.068 18.6416 149.476 18.7559Q148.931 18.6416 148.157 18.5713Q147.384 18.501 146.707 18.501Q145.732 18.501 145.477 18.6768Q145.301 18.791 145.679 19.5293Q146.057 20.2676 146.646 21.0059Q147.243 21.7441 147.604 21.8496Q147.815 21.9551 148.254 21.9551Q149.115 21.9551 151.778 21.3398Q152.209 21.2695 153.088 21.0762Q153.976 20.874 154.371 20.874Q154.011 22.7109 152.517 25.4531Q151.023 28.1865 149.15 30.5596Q147.278 32.9326 145.872 33.7236Q148.79 33.6182 151.866 31.1309Q154.951 28.6523 156.999 25.4004Q159.047 22.1396 158.977 20.083Q160.418 19.7227 161.895 19.4941Q163.371 19.2568 164.057 19.2217Q163.837 20.8389 163.354 25.3037Q162.87 29.7686 162.905 29.9443Q163.231 32.3613 164.575 33.3457Q165.929 34.3389 168.732 34.3389Q170.534 34.3389 173.057 34.0137Q173.813 33.873 174.059 33.8379Q175.289 33.6885 175.896 33.293Q176.511 33.0117 176.977 32.4844Q177.442 31.9658 177.442 31.3154ZM54.835 14.6865Q54.791 15.2227 54.791 16.4092Q54.3955 16.374 53.3672 16.4355Q52.3477 16.4883 51.8819 16.5234Q51.8467 16.0488 51.8994 15.8027Q51.9522 15.5479 51.917 14.6865Q52.3477 14.7568 52.708 14.7568Q53.3145 14.7568 53.6397 14.7217L54.835 14.6865ZM190.802 17.5254Q190.802 19.3271 190.547 19.7227Q190.231 19.9072 189.809 19.9775Q189.396 20.0479 188.833 20.0303Q188.279 20.0127 188.068 20.0127Q187.093 20.0127 186.592 20.2676L186.522 20.2676Q186.557 19.1162 186.697 17.0596Q186.627 16.4883 186.627 16.2334Q186.627 15.7236 186.803 15.293Q188.209 15.082 190.591 15.0117Q190.802 15.7676 190.802 17.5254ZM121.975 15.5479L121.72 15.6885L121.649 15.2578L121.975 15.4424L121.975 15.5479ZM118.731 24.0645Q118.626 26.9209 118.336 26.9561Q118.151 27.2461 117.378 27.3779Q116.605 27.501 115.849 27.501L115.849 20.083L115.884 19.3271Q115.963 18.6768 115.963 18.3164Q115.963 17.6748 115.778 17.4199Q116.139 17.165 117.255 16.8047Q118.371 16.4443 118.837 16.374L118.837 17.8506Q118.837 21.1992 118.731 24.0645ZM166.034 16.5938Q166.324 16.6289 166.649 16.8047L166.649 17.0947L164.918 17.0244Q165.103 16.9189 165.498 16.8135Q165.894 16.6992 166.034 16.5938ZM17.8945 17.8857Q17.8594 18 17.8594 18.1758L17.8594 18.3164L17.6045 18.4658Q17.5342 18.3955 17.5342 18.3604Q17.5342 18.1055 17.5869 18Q17.6396 17.8857 17.6748 17.7803L17.8945 17.8857ZM69.0645 23.9414Q68.836 23.3613 68.4404 22.7109L67.9746 21.7793Q67.1397 21.7002 65.3027 22.0605Q63.9404 22.2803 63.5801 22.2803Q63.5098 21.9902 63.668 21.8145Q63.835 21.6299 63.835 20.6982Q63.5098 20.2236 63 20.0479Q62.499 19.8721 61.7432 19.8721Q61.1631 19.8721 60.8467 19.9072L59.6514 19.9424L58.8955 19.9072Q59.1504 20.083 59.2031 20.373Q59.2559 20.6631 59.291 21.3398Q59.291 21.5244 59.3262 21.9551Q59.3701 22.3857 59.4404 22.7812L57.7442 22.9307Q52.1279 23.4668 49.1045 23.4668Q47.2324 23.4668 46.2656 23.3965Q46.0459 23.1768 45.4658 23.1064Q44.8945 23.0361 44.6748 22.9658Q44.8242 24.2578 45.2725 25.1104Q45.7207 25.9541 46.7315 26.4902Q47.707 26.4551 51.0469 26.0596Q56.5928 25.3037 59.7305 25.2334Q59.7305 26.71 59.669 27.3779Q59.6162 28.0371 59.335 30.3398Q58.3945 30.7002 57.1729 30.7002Q56.4873 30.7002 55.9072 30.8496Q56.9531 31.5703 58.2188 32.8975Q59.0449 33.7236 59.5459 34.1016Q60.0469 34.4883 60.5215 34.4883Q60.917 34.4883 61.418 34.084Q62.5694 34.1631 62.8945 32.1064Q63.2197 30.0586 63.2901 26.1299L63.3252 24.873Q64.1162 24.9082 64.6699 25.0225Q65.2324 25.1279 66.0586 25.3389Q66.8145 25.5586 67.3682 25.6641Q67.9307 25.7695 68.6514 25.7695L69.3369 25.1982Q69.3018 24.5127 69.0645 23.9414ZM30.5859 21.4541Q30.8584 21.8145 30.999 21.9551L30.9639 22.0605Q30.7441 21.9551 30.4893 21.5947Q30.2432 21.2344 30.0586 21.0938L30.1025 20.9092Q30.3135 21.0938 30.5859 21.4541ZM50.2031 24.7676Q49.9307 24.873 49.8252 24.9785L49.1045 24.9785L49.1045 24.873Q49.2891 24.8027 49.6319 24.6797Q49.9746 24.5479 50.2559 24.4072Q50.4756 24.4424 50.5459 24.583Q50.4756 24.6533 50.2031 24.7676ZM54.835 28.2568Q54.2901 26.6748 50.0449 26.6748Q51.4512 28.3623 52.3828 30.3047Q52.7432 30.9551 52.919 31.2012Q53.1035 31.4561 53.3584 31.4561Q53.6748 31.4561 54.1846 31.0605Q54.4307 30.8496 54.7207 30.1641Q55.0108 29.4785 55.0108 28.9072Q55.0108 28.4678 54.835 28.2568ZM52.2422 27.4307Q52.4531 27.501 52.5235 27.5361L52.2422 27.4307ZM22.2275 30.252Q22.4297 29.7334 22.3945 28.9072L22.6494 28.9072L22.7549 29.0479L22.6494 31.4209L22.1045 31.3154Q22.0693 31.21 21.9639 31.0605Q22.0342 30.7793 22.2275 30.252ZM174.349 31.3857Q174.349 31.5352 174.208 31.6406Q174.103 31.7461 173.848 31.7812Q173.593 31.8164 173.452 31.8604L172.907 31.8164Q172.942 31.5352 173.356 31.2451Q173.777 30.9551 173.883 30.8496L174.103 30.8496Q174.349 31.2451 174.349 31.3857ZM60.4072 31.6055Q60.2315 31.5352 60.0908 31.4561L60.4072 31.5352L60.4072 31.6055Z" fill="#4371A0"/>
	<defs/>
</svg>
